<svg xmlns="http://www.w3.org/2000/svg" width="16" height="16" viewBox="0 0 16 16">
  <metadata><?xpacket begin="﻿" id="W5M0MpCehiHzreSzNTczkc9d"?>
<x:xmpmeta xmlns:x="adobe:ns:meta/" x:xmptk="Adobe XMP Core 5.6-c138 79.159824, 2016/09/14-01:09:01        ">
   <rdf:RDF xmlns:rdf="http://www.w3.org/1999/02/22-rdf-syntax-ns#">
      <rdf:Description rdf:about=""/>
   </rdf:RDF>
</x:xmpmeta>
                                                                                                    
                                                                                                    
                                                                                                    
                                                                                                    
                                                                                                    
                                                                                                    
                                                                                                    
                                                                                                    
                                                                                                    
                                                                                                    
                                                                                                    
                                                                                                    
                                                                                                    
                                                                                                    
                                                                                                    
                                                                                                    
                                                                                                    
                                                                                                    
                                                                                                    
                                                                                                    
                           
<?xpacket end="w"?></metadata>
<defs>
    <style>
      .cls-1 {
        fill: #fff;
        fill-rule: evenodd;
      }
    </style>
  </defs>
  <path id="通用设置icon" class="cls-1" d="M551.553,274.969a6.1,6.1,0,0,1,0,2.064l1.235,1a0.55,0.55,0,0,1,.176.625l-0.018.047a7.857,7.857,0,0,1-1.5,2.463l-0.034.037a0.627,0.627,0,0,1-.662.17l-1.533-.516a6.707,6.707,0,0,1-1.881,1.028l-0.3,1.518a0.589,0.589,0,0,1-.487.459l-0.051.009a8.916,8.916,0,0,1-3,0l-0.051-.009a0.587,0.587,0,0,1-.486-0.459l-0.3-1.525a6.665,6.665,0,0,1-1.868-1.025l-1.545.52a0.629,0.629,0,0,1-.662-0.17l-0.034-.037a7.864,7.864,0,0,1-1.5-2.463l-0.017-.047a0.552,0.552,0,0,1,.175-0.628l1.251-1.011a6.017,6.017,0,0,1,0-2.039l-1.251-1.011a0.555,0.555,0,0,1-.175-0.629l0.017-.046a7.876,7.876,0,0,1,1.5-2.463l0.034-.038a0.626,0.626,0,0,1,.662-0.169l1.545,0.519a6.742,6.742,0,0,1,1.868-1.025l0.3-1.525a0.589,0.589,0,0,1,.486-0.459l0.051-.009a8.986,8.986,0,0,1,3,0l0.051,0.009a0.59,0.59,0,0,1,.487.459l0.3,1.518a6.76,6.76,0,0,1,1.881,1.029l1.533-.516a0.627,0.627,0,0,1,.662.169l0.034,0.038a7.812,7.812,0,0,1,1.5,2.463l0.018,0.046a0.553,0.553,0,0,1-.176.629Zm-0.857-2.958-1.75.588-0.592-.461a5.39,5.39,0,0,0-1.5-.818l-0.719-.255-0.337-1.732a7.415,7.415,0,0,0-1.6,0l-0.337,1.735-0.715.256a5.36,5.36,0,0,0-1.485.816l-0.592.463-1.762-.593a6.509,6.509,0,0,0-.8,1.314l1.424,1.152-0.123.714a4.689,4.689,0,0,0-.07.813,4.9,4.9,0,0,0,.07.812l0.123,0.715-1.424,1.152a6.658,6.658,0,0,0,.8,1.314l1.762-.593,0.592,0.463a5.36,5.36,0,0,0,1.485.816l0.712,0.259,0.338,1.736a7.535,7.535,0,0,0,1.6,0l0.338-1.733,0.719-.255a5.362,5.362,0,0,0,1.5-.818l0.592-.461,1.75,0.588a6.513,6.513,0,0,0,.8-1.314l-1.409-1.142,0.125-.716a4.805,4.805,0,0,0,0-1.646l-0.123-.713,1.409-1.141A6.67,6.67,0,0,0,550.7,272.011ZM545,278.967a3.148,3.148,0,1,1,3.319-3.143A3.235,3.235,0,0,1,545,278.967Zm1.493-4.557a2.2,2.2,0,0,0-2.987,0,1.926,1.926,0,0,0,0,2.829,2.2,2.2,0,0,0,2.987,0A1.926,1.926,0,0,0,546.5,274.41Z" transform="translate(-537 -268.015)"/>
</svg>
