<svg xmlns="http://www.w3.org/2000/svg" width="16" height="16" viewBox="0 0 16 16">
  <metadata><?xpacket begin="﻿" id="W5M0MpCehiHzreSzNTczkc9d"?>
<x:xmpmeta xmlns:x="adobe:ns:meta/" x:xmptk="Adobe XMP Core 5.6-c138 79.159824, 2016/09/14-01:09:01        ">
   <rdf:RDF xmlns:rdf="http://www.w3.org/1999/02/22-rdf-syntax-ns#">
      <rdf:Description rdf:about=""/>
   </rdf:RDF>
</x:xmpmeta>
                                                                                                    
                                                                                                    
                                                                                                    
                                                                                                    
                                                                                                    
                                                                                                    
                                                                                                    
                                                                                                    
                                                                                                    
                                                                                                    
                                                                                                    
                                                                                                    
                                                                                                    
                                                                                                    
                                                                                                    
                                                                                                    
                                                                                                    
                                                                                                    
                                                                                                    
                                                                                                    
                           
<?xpacket end="w"?></metadata>
<defs>
    <style>
      .cls-1 {
        fill: #fff;
        fill-rule: evenodd;
      }
    </style>
  </defs>
  <path id="网络详情_icon" data-name="网络详情 icon" class="cls-1" d="M39.146,421.844l-0.03.025a0.585,0.585,0,0,1-.368.131H29.253a0.585,0.585,0,0,1-.368-0.131l-0.031-.025a7.763,7.763,0,0,1-2.855-6,7.652,7.652,0,0,1,.629-3.052,7.8,7.8,0,0,1,1.714-2.492,7.985,7.985,0,0,1,2.543-1.68,8.18,8.18,0,0,1,6.228,0,7.98,7.98,0,0,1,2.543,1.68,7.805,7.805,0,0,1,1.714,2.492A7.685,7.685,0,0,1,42,415.84,7.766,7.766,0,0,1,39.146,421.844ZM38.7,411.237a6.737,6.737,0,0,0-9.393,0,6.42,6.42,0,0,0,.243,9.433h8.907A6.42,6.42,0,0,0,38.7,411.237Zm-0.447,4.988v-0.77a0.142,0.142,0,0,1,.143-0.14h1.429a0.142,0.142,0,0,1,.143.14v0.77a0.142,0.142,0,0,1-.143.14H38.392A0.142,0.142,0,0,1,38.249,416.225Zm-0.985-3.033-0.556-.544a0.139,0.139,0,0,1,0-.2l1.011-.99a0.144,0.144,0,0,1,.2,0L38.476,412a0.139,0.139,0,0,1,0,.2l-1.01.99A0.146,0.146,0,0,1,37.264,413.192Zm-2.536,3.343a1.014,1.014,0,0,1-1.415,0,0.965,0.965,0,0,1,0-1.386,1.01,1.01,0,0,1,.967-0.254l1.509-1.479a0.146,0.146,0,0,1,.2,0l0.505,0.5a0.139,0.139,0,0,1,0,.2l-1.509,1.479A0.965,0.965,0,0,1,34.728,416.535Zm-0.335-4.9H33.606a0.142,0.142,0,0,1-.142-0.14v-1.4a0.142,0.142,0,0,1,.142-0.14h0.786a0.141,0.141,0,0,1,.142.14v1.4A0.141,0.141,0,0,1,34.393,411.64Zm-3.852,1.552-1.011-.99a0.139,0.139,0,0,1,0-.2l0.555-.544a0.144,0.144,0,0,1,.2,0l1.011,0.99a0.139,0.139,0,0,1,0,.2l-0.556.544A0.145,0.145,0,0,1,30.541,413.192Zm-0.863,2.263v0.77a0.142,0.142,0,0,1-.143.14H28.107a0.142,0.142,0,0,1-.143-0.14v-0.77a0.142,0.142,0,0,1,.143-0.14h1.428A0.142,0.142,0,0,1,29.678,415.455Z" transform="translate(-26 -407)"/>
</svg>
