<svg xmlns="http://www.w3.org/2000/svg" width="16" height="16" viewBox="0 0 16 16">
  <metadata><?xpacket begin="﻿" id="W5M0MpCehiHzreSzNTczkc9d"?>
<x:xmpmeta xmlns:x="adobe:ns:meta/" x:xmptk="Adobe XMP Core 5.6-c138 79.159824, 2016/09/14-01:09:01        ">
   <rdf:RDF xmlns:rdf="http://www.w3.org/1999/02/22-rdf-syntax-ns#">
      <rdf:Description rdf:about=""/>
   </rdf:RDF>
</x:xmpmeta>
                                                                                                    
                                                                                                    
                                                                                                    
                                                                                                    
                                                                                                    
                                                                                                    
                                                                                                    
                                                                                                    
                                                                                                    
                                                                                                    
                                                                                                    
                                                                                                    
                                                                                                    
                                                                                                    
                                                                                                    
                                                                                                    
                                                                                                    
                                                                                                    
                                                                                                    
                                                                                                    
                           
<?xpacket end="w"?></metadata>
<defs>
    <style>
      .cls-1 {
        fill: #fff;
        fill-rule: evenodd;
      }
    </style>
  </defs>
  <g id="网络断开">
    <g id="组_14" data-name="组 14">
      <path id="椭圆_2" data-name="椭圆 2" class="cls-1" d="M277.259,382.031h0.519a6.252,6.252,0,0,0-1.385-3.49,7.459,7.459,0,0,1-1.364.936,12.393,12.393,0,0,1,.307,2.094c-0.029,0-.056-0.009-0.086-0.009a4.678,4.678,0,0,0-.843.085,11.521,11.521,0,0,0-.242-1.755l0-.02a7.461,7.461,0,0,1-2.191.47v1.689h1.271a4.689,4.689,0,0,0-2.209,2.209v-1.271h-2.469a11.626,11.626,0,0,0,.273,2.139l0,0.02a7.46,7.46,0,0,1,2.011-.445,4.624,4.624,0,0,0-.229.974,6.516,6.516,0,0,0-1.529.377,7.493,7.493,0,0,0,.485,1.135,4.035,4.035,0,0,0,.989,1.257,1.885,1.885,0,0,0,.464.275v-0.442a4.68,4.68,0,0,0,1.332,1.658A6.925,6.925,0,0,1,266.4,388c-0.057-.051-0.114-0.105-0.169-0.16l0,0c-0.027-.025-0.052-0.052-0.078-0.079l0,0c-0.054-.055-0.107-0.112-0.161-0.169h0c-0.026-.027-0.052-0.056-0.077-0.084,0,0,0,0,0,0-0.024-.026-0.045-0.051-0.069-0.078l-0.02-.024-0.052-.062a0.158,0.158,0,0,0-.012-0.015,7.5,7.5,0,0,1,0-9.641s0.008-.008.011-0.013c0.019-.02.036-0.042,0.054-0.062l0.02-.024c0.022-.026.045-0.053,0.069-0.078v0l0.077-.085,0,0c0.054-.057.107-0.114,0.163-0.169l0.087-.087c0.025-.024.05-0.049,0.075-0.072,0.01-.008.018-0.017,0.027-0.025s0.033-.034.05-0.049,0.012-.011.017-0.017a7.5,7.5,0,0,1,10.187,0,0.133,0.133,0,0,0,.016.017c0.017,0.015.034,0.03,0.051,0.047l0.026,0.025c0.025,0.024.051,0.047,0.076,0.072l0,0,0.08,0.081h0c0.055,0.055.108,0.112,0.162,0.169l0,0,0.077,0.085,0,0,0.068,0.079c0.007,0.008.014,0.015,0.02,0.023s0.035,0.04.054,0.062c0,0,.008.009,0.011,0.014A7.47,7.47,0,0,1,279,382.5a7.326,7.326,0,0,1-.078.869A4.683,4.683,0,0,0,277.259,382.031Zm-6.228,0v-1.689a7.447,7.447,0,0,1-2.191-.47l0,0.02a11.637,11.637,0,0,0-.273,2.139h2.469Zm-1.98,6.27c0.06,0.025.122,0.05,0.184,0.073a7.183,7.183,0,0,1-.991-1.931,6.6,6.6,0,0,0-1,.7A6.279,6.279,0,0,0,269.051,388.3Zm-3.352-3.352a6.258,6.258,0,0,0,.908,1.51,7.425,7.425,0,0,1,1.364-.936,12.537,12.537,0,0,1-.347-2.554h-2.4A6.258,6.258,0,0,0,265.7,384.949Zm0-4.9a6.258,6.258,0,0,0-.477,1.98h2.4a12.537,12.537,0,0,1,.347-2.554,7.425,7.425,0,0,1-1.364-.936A6.258,6.258,0,0,0,265.7,380.051Zm3.352-3.352a6.258,6.258,0,0,0-1.8,1.159,6.456,6.456,0,0,0,1,.7,7.183,7.183,0,0,1,.991-1.931C269.173,376.649,269.113,376.674,269.051,376.7Zm1.982-.4a1.88,1.88,0,0,0-.464.275,4.018,4.018,0,0,0-.989,1.257,7.229,7.229,0,0,0-.486,1.135,6.5,6.5,0,0,0,1.937.439h0V376.3Zm1.4,0.277a1.85,1.85,0,0,0-.463-0.275v3.1a6.507,6.507,0,0,0,1.937-.439,7.6,7.6,0,0,0-.486-1.135A4.009,4.009,0,0,0,272.432,376.574Zm1.517,0.125c-0.06-.025-0.122-0.05-0.184-0.073a7.183,7.183,0,0,1,.991,1.931,6.6,6.6,0,0,0,1-.7A6.258,6.258,0,0,0,273.949,376.7Z" transform="translate(-264 -375)"/>
      <path id="形状_523" data-name="形状 523" class="cls-1" d="M276,383a4,4,0,1,0,4,4,4,4,0,0,0-4-4h0Zm0,7.321a3.32,3.32,0,0,1-2.576-5.417l4.672,4.672a3.3,3.3,0,0,1-2.1.745h0Zm2.576-1.225-4.673-4.672a3.321,3.321,0,0,1,4.673,4.672h0Zm0,0" transform="translate(-264 -375)"/>
    </g>
  </g>
</svg>
