<svg xmlns="http://www.w3.org/2000/svg" width="16" height="16" viewBox="0 0 16 16">
  <metadata><?xpacket begin="﻿" id="W5M0MpCehiHzreSzNTczkc9d"?>
<x:xmpmeta xmlns:x="adobe:ns:meta/" x:xmptk="Adobe XMP Core 5.6-c138 79.159824, 2016/09/14-01:09:01        ">
   <rdf:RDF xmlns:rdf="http://www.w3.org/1999/02/22-rdf-syntax-ns#">
      <rdf:Description rdf:about=""/>
   </rdf:RDF>
</x:xmpmeta>
                                                                                                    
                                                                                                    
                                                                                                    
                                                                                                    
                                                                                                    
                                                                                                    
                                                                                                    
                                                                                                    
                                                                                                    
                                                                                                    
                                                                                                    
                                                                                                    
                                                                                                    
                                                                                                    
                                                                                                    
                                                                                                    
                                                                                                    
                                                                                                    
                                                                                                    
                                                                                                    
                           
<?xpacket end="w"?></metadata>
<defs>
    <style>
      .cls-1 {
        fill: #fff;
        fill-rule: evenodd;
      }
    </style>
  </defs>
  <path id="DSL_icon" data-name="DSL icon" class="cls-1" d="M41.953,143.877l-0.832-.832A0.154,0.154,0,0,0,41.01,143a0.164,0.164,0,0,0-.112.045l-1.492,1.493a3.925,3.925,0,0,0-4.972.476l-2,2a0.158,0.158,0,0,0,0,.222l5.328,5.329a0.149,0.149,0,0,0,.111.045,0.163,0.163,0,0,0,.112-0.045l2-2a3.927,3.927,0,0,0,.476-4.972l1.492-1.493a0.159,0.159,0,0,0,0-.223h0Zm-2.914,5.745-1.165,1.165-3.663-3.664,1.165-1.165a2.59,2.59,0,1,1,3.663,3.664h0Zm-3.729,2.059a0.159,0.159,0,0,0-.222,0l-1.306,1.307-1.77-1.771,1.308-1.309a0.156,0.156,0,0,0,0-.221l-0.714-.714a0.157,0.157,0,0,0-.222,0l-1.308,1.308-0.843-.843a0.151,0.151,0,0,0-.111-0.046,0.162,0.162,0,0,0-.111.046l-2,2a3.929,3.929,0,0,0-.477,4.973L26.045,157.9a0.156,0.156,0,0,0,0,.221l0.831,0.832a0.157,0.157,0,0,0,.112.045,0.163,0.163,0,0,0,.111-0.045l1.492-1.493a3.924,3.924,0,0,0,4.973-.477l2-2a0.158,0.158,0,0,0,0-.222l-0.843-.843,1.308-1.309a0.157,0.157,0,0,0,0-.221Zm-2.691,4.363a2.59,2.59,0,0,1-3.662-3.664l1.165-1.165,3.663,3.664Zm0,0" transform="translate(-26 -143)"/>
</svg>
