<svg xmlns="http://www.w3.org/2000/svg" width="16" height="16" viewBox="0 0 16 16">
  <metadata><?xpacket begin="﻿" id="W5M0MpCehiHzreSzNTczkc9d"?>
<x:xmpmeta xmlns:x="adobe:ns:meta/" x:xmptk="Adobe XMP Core 5.6-c138 79.159824, 2016/09/14-01:09:01        ">
   <rdf:RDF xmlns:rdf="http://www.w3.org/1999/02/22-rdf-syntax-ns#">
      <rdf:Description rdf:about=""/>
   </rdf:RDF>
</x:xmpmeta>
                                                                                                    
                                                                                                    
                                                                                                    
                                                                                                    
                                                                                                    
                                                                                                    
                                                                                                    
                                                                                                    
                                                                                                    
                                                                                                    
                                                                                                    
                                                                                                    
                                                                                                    
                                                                                                    
                                                                                                    
                                                                                                    
                                                                                                    
                                                                                                    
                                                                                                    
                                                                                                    
                           
<?xpacket end="w"?></metadata>
<defs>
    <style>
      .cls-1 {
        fill: #fff;
        fill-rule: evenodd;
      }
    </style>
  </defs>
  <path id="开机启动icon" class="cls-1" d="M1484.89,518.189a1.6,1.6,0,0,1,.07.445,1.785,1.785,0,0,1-.43,1.136,1.945,1.945,0,0,1-.86.57,2.737,2.737,0,0,1-1.05,1.2A3.029,3.029,0,0,1,1481,522a2.9,2.9,0,0,1-2.67-1.66,1.894,1.894,0,0,1-.86-0.572,1.723,1.723,0,0,1-.43-1.136,1.532,1.532,0,0,1,.07-0.445H1474a5.219,5.219,0,0,1,3.18-4.727v-3.1a1.166,1.166,0,0,1,.3-0.77l3.03-3.378a0.67,0.67,0,0,1,.98,0l3.03,3.378a1.166,1.166,0,0,1,.3.77v3.1a5.219,5.219,0,0,1,3.18,4.727v0h-3.11Zm-7.63-3.316a4.226,4.226,0,0,0-1.24,1.172,4.182,4.182,0,0,0-.45.871h1.69v-2.043Zm6.21-4.484-2.47-2.748-2.47,2.748v6.527h4.94v-6.527Zm-0.17,7.8h-4.6a0.5,0.5,0,0,0-.29.445,0.527,0.527,0,0,0,.28.456,0.581,0.581,0,0,0,.28.069c0.02,0,.04,0,0.06,0l0.39-.046,0.05,0.364a1.563,1.563,0,0,0,3.06,0l0.05-.363,0.39,0.045a0.556,0.556,0,0,0,.34-0.063,0.526,0.526,0,0,0,.28-0.458A0.483,0.483,0,0,0,1483.3,518.185Zm2.68-2.14a4.107,4.107,0,0,0-1.24-1.172v2.043h1.69A4.182,4.182,0,0,0,1485.98,516.045Zm-4.98-5.036a0.9,0.9,0,1,1-.95.9A0.922,0.922,0,0,1,1481,511.009Z" transform="translate(-1473 -506)"/>
</svg>
