<svg xmlns="http://www.w3.org/2000/svg" width="16" height="16" viewBox="0 0 16 16">
  <metadata><?xpacket begin="﻿" id="W5M0MpCehiHzreSzNTczkc9d"?>
<x:xmpmeta xmlns:x="adobe:ns:meta/" x:xmptk="Adobe XMP Core 5.6-c138 79.159824, 2016/09/14-01:09:01        ">
   <rdf:RDF xmlns:rdf="http://www.w3.org/1999/02/22-rdf-syntax-ns#">
      <rdf:Description rdf:about=""/>
   </rdf:RDF>
</x:xmpmeta>
                                                                                                    
                                                                                                    
                                                                                                    
                                                                                                    
                                                                                                    
                                                                                                    
                                                                                                    
                                                                                                    
                                                                                                    
                                                                                                    
                                                                                                    
                                                                                                    
                                                                                                    
                                                                                                    
                                                                                                    
                                                                                                    
                                                                                                    
                                                                                                    
                                                                                                    
                                                                                                    
                           
<?xpacket end="w"?></metadata>
<defs>
    <style>
      .cls-1 {
        fill: #fff;
        fill-rule: evenodd;
      }
    </style>
  </defs>
  <path id="默认程序ICON" class="cls-1" d="M1479.96,440h-6.61a0.351,0.351,0,0,0-.35.348v6.608a0.351,0.351,0,0,0,.35.348h6.61a0.343,0.343,0,0,0,.34-0.348v-6.608a0.343,0.343,0,0,0-.34-0.348h0Zm-1.13,5.826h-4.35v-4.348h4.35v4.348Zm9.82-5.826h-6.61a0.343,0.343,0,0,0-.34.348v6.608a0.343,0.343,0,0,0,.34.348h6.61a0.351,0.351,0,0,0,.35-0.348v-6.608a0.351,0.351,0,0,0-.35-0.348h0Zm-1.13,5.826h-4.35v-4.348h4.35v4.348Zm-7.56,2.869h-6.61a0.352,0.352,0,0,0-.35.348v6.609a0.352,0.352,0,0,0,.35.348h6.61a0.343,0.343,0,0,0,.34-0.348v-6.609a0.343,0.343,0,0,0-.34-0.348h0Zm-1.13,5.827h-4.35v-4.348h4.35v4.348Zm9.82-5.827h-6.61a0.343,0.343,0,0,0-.34.348v6.609a0.343,0.343,0,0,0,.34.348h6.61a0.352,0.352,0,0,0,.35-0.348v-6.609a0.352,0.352,0,0,0-.35-0.348h0Zm-1.13,5.827h-4.35v-4.348h4.35v4.348Zm0,0" transform="translate(-1473 -440)"/>
</svg>
