<svg id="表盘" xmlns="http://www.w3.org/2000/svg" xmlns:xlink="http://www.w3.org/1999/xlink" width="180" height="180" viewBox="0 0 180 180">
  <defs>
    <style type="text/css">
      .cls-1 {
        fill: url(#linear-gradient);
      }

      .cls-2 {
        fill: url(#linear-gradient-2);
      }

      .cls-3 {
        fill: #2f292d;
      }

      .cls-3, .cls-4, .cls-5 {
        fill-rule: evenodd;
      }

      .cls-4 {
        fill: #2e2e2e;
      }

      .cls-5 {
        fill: #a3a3a3;
      }
    </style>
    <linearGradient id="linear-gradient" x1="90" y1="180" x2="90" gradientUnits="userSpaceOnUse">
      <stop offset="0" stop-color="#bebebe"/>
      <stop offset="1" stop-color="#fff"/>
    </linearGradient>
    <linearGradient id="linear-gradient-2" x1="90" y1="175" x2="90" y2="5" gradientUnits="userSpaceOnUse">
      <stop offset="0" stop-color="#e6e6e6"/>
      <stop offset="1" stop-color="#d9d9d9"/>
    </linearGradient>
  </defs>
  <circle id="形状_1_副本_3" data-name="形状 1 副本 3" class="cls-1" cx="90" cy="90" r="90"/>
  <circle id="形状_1_副本_2" data-name="形状 1 副本 2" class="cls-2" cx="90" cy="90" r="85"/>
  <g id="组_2" data-name="组 2">
    <path id="_12" data-name="12" class="cls-3" d="M2682.17,303.6a6.184,6.184,0,0,1-1.23.994,6.016,6.016,0,0,1-1.43.588V306.7a5.455,5.455,0,0,0,2.29-1.26V313.6h1.53v-10h-1.16Zm8.66-.2a3.246,3.246,0,0,0-2.57,1.078,3.875,3.875,0,0,0-.97,2.688h1.53a3.075,3.075,0,0,1,.53-1.834,1.663,1.663,0,0,1,1.43-.644,1.96,1.96,0,0,1,1.36.42,1.647,1.647,0,0,1,.46,1.26,2.421,2.421,0,0,1-.69,1.638,10.518,10.518,0,0,1-1.43,1.148,13.4,13.4,0,0,0-2.25,1.82,3.829,3.829,0,0,0-.99,2.618h6.88v-1.344h-4.99a4.8,4.8,0,0,1,1.93-1.89,14.376,14.376,0,0,0,2.07-1.61,3.5,3.5,0,0,0,.98-2.366,2.792,2.792,0,0,0-.91-2.156,3.4,3.4,0,0,0-2.37-.826h0Z" transform="translate(-2599 -276)"/>
    <path id="_6" data-name="6" class="cls-3" d="M2688.3,420.048a3.12,3.12,0,0,0-2.74,1.526,6.928,6.928,0,0,0-1,3.948,6,6,0,0,0,.93,3.57,3.221,3.221,0,0,0,2.8,1.344,3.461,3.461,0,0,0,2.49-.98,3.294,3.294,0,0,0,.99-2.464,3.452,3.452,0,0,0-.87-2.422,3.083,3.083,0,0,0-2.35-.924,2.871,2.871,0,0,0-1.38.308,2.553,2.553,0,0,0-1.07.98h-0.05a1.024,1.024,0,0,1-.02-0.182,4.471,4.471,0,0,1,.6-2.422,1.865,1.865,0,0,1,1.66-1.022,1.681,1.681,0,0,1,1.82,1.456h1.48q-0.375-2.717-3.29-2.716h0Zm-0.06,4.83a1.942,1.942,0,0,1,1.49.588,2.077,2.077,0,0,1,.54,1.526,2.282,2.282,0,0,1-.57,1.568,1.853,1.853,0,0,1-1.47.616,1.9,1.9,0,0,1-1.46-.588,2.145,2.145,0,0,1-.56-1.554,2.233,2.233,0,0,1,.55-1.568,1.919,1.919,0,0,1,1.48-.588h0Z" transform="translate(-2599 -276)"/>
    <path id="_3" data-name="3" class="cls-3" d="M2749.46,361.448a3.443,3.443,0,0,0-2.4.826,3.28,3.28,0,0,0-1.1,2.324h1.5a1.824,1.824,0,0,1,2.01-1.848,1.969,1.969,0,0,1,1.36.406,1.491,1.491,0,0,1,.43,1.148,1.432,1.432,0,0,1-.47,1.162,2.09,2.09,0,0,1-1.39.406h-0.71v1.148h0.73a2.264,2.264,0,0,1,1.49.42,1.525,1.525,0,0,1,.55,1.3,1.683,1.683,0,0,1-.52,1.246,2.188,2.188,0,0,1-1.55.56,2.017,2.017,0,0,1-1.43-.5,2.072,2.072,0,0,1-.66-1.554h-1.54a3.549,3.549,0,0,0,1.18,2.562,3.688,3.688,0,0,0,2.46.784,3.82,3.82,0,0,0,2.62-.9,2.967,2.967,0,0,0,.95-2.268,2.12,2.12,0,0,0-.5-1.456,2.8,2.8,0,0,0-1.35-.826,2.15,2.15,0,0,0,1.66-2.2,2.476,2.476,0,0,0-.9-2.016,3.763,3.763,0,0,0-2.42-.728h0Z" transform="translate(-2599 -276)"/>
    <path id="_9" data-name="9" class="cls-3" d="M2627.13,361.448a3.4,3.4,0,0,0-2.49.98,3.238,3.238,0,0,0-1,2.464,3.358,3.358,0,0,0,.86,2.394,3.043,3.043,0,0,0,2.36.952,3.178,3.178,0,0,0,1.39-.308,2.8,2.8,0,0,0,1.06-.98h0.06l0.01,0.182a4.606,4.606,0,0,1-.6,2.422,1.907,1.907,0,0,1-1.65,1.022,1.658,1.658,0,0,1-1.82-1.456h-1.49a2.921,2.921,0,0,0,3.29,2.716,3.183,3.183,0,0,0,2.75-1.526,7.136,7.136,0,0,0,.99-3.948,6,6,0,0,0-.94-3.584,3.2,3.2,0,0,0-2.78-1.33h0Zm0.05,1.26a1.92,1.92,0,0,1,1.46.588,2.473,2.473,0,0,1,.01,3.122,1.9,1.9,0,0,1-1.48.588,1.869,1.869,0,0,1-1.47-.588,2.075,2.075,0,0,1-.56-1.526,2.224,2.224,0,0,1,.56-1.568,1.847,1.847,0,0,1,1.48-.616h0Z" transform="translate(-2599 -276)"/>
  </g>
  <g id="组_1_拷贝" data-name="组 1 拷贝">
    <path id="矩形_1392_拷贝_2" data-name="矩形 1392 拷贝 2" class="cls-4" d="M2688,290h1v8h-1v-8Zm0,144h1v8h-1v-8Zm69-68h8v1h-8v-1Zm-144,0h8v1h-8v-1Z" transform="translate(-2599 -276)"/>
    <path id="矩形_1392_拷贝_12" data-name="矩形 1392 拷贝 12" class="cls-5" d="M2726.07,299.932l0.86,0.5-2,3.464-0.86-.5Zm-74,128.172,0.86,0.5-2,3.464-0.86-.5Zm102-100.537,0.5,0.866-3.47,2-0.5-.866Zm-128.17,74,0.5,0.866-3.47,2-0.5-.866Zm129.11,1.964-0.5.866-3.46-2,0.49-.865ZM2626.95,329.6l-0.49.866-3.47-2,0.5-.865Zm100.45,101.9-0.87.5-2-3.461,0.87-.5Zm-73.93-128.051-0.87.5-2-3.461,0.87-.5Zm55.66,135.756-0.96.259-1.04-3.86,0.97-.258ZM2670.87,296.39l-0.97.258-1.03-3.86,0.96-.258Zm-1.04,143.08-0.96-.259,1.03-3.859,0.97,0.258Zm38.27-142.822-0.97-.258,1.04-3.86,0.96,0.258Zm-72.44,123.394-0.7-.706,2.82-2.826,0.71,0.707ZM2740.22,315.49l-0.71-.707,2.83-2.826,0.7,0.707Zm-124.43,70.644-0.26-.965,3.86-1.034,0.26,0.965Zm142.82-38.269-0.26-.965,3.86-1.034,0.26,0.965Zm-143.08-1.034,0.26-.965,3.86,1.034-0.26.965ZM2758.35,385.1l0.26-.965,3.86,1.034-0.26.965Zm-123.39-72.436,0.7-.707,2.83,2.826-0.71.707Zm104.55,104.553,0.71-.707,2.82,2.826-0.7.706Z" transform="translate(-2599 -276)"/>
  </g>
</svg>
