<svg xmlns="http://www.w3.org/2000/svg" width="220" height="220" viewBox="0 0 220 220">
  <metadata><?xpacket begin="﻿" id="W5M0MpCehiHzreSzNTczkc9d"?>
<x:xmpmeta xmlns:x="adobe:ns:meta/" x:xmptk="Adobe XMP Core 5.6-c138 79.159824, 2016/09/14-01:09:01        ">
   <rdf:RDF xmlns:rdf="http://www.w3.org/1999/02/22-rdf-syntax-ns#">
      <rdf:Description rdf:about=""/>
   </rdf:RDF>
</x:xmpmeta>
                                                                                                    
                                                                                                    
                                                                                                    
                                                                                                    
                                                                                                    
                                                                                                    
                                                                                                    
                                                                                                    
                                                                                                    
                                                                                                    
                                                                                                    
                                                                                                    
                                                                                                    
                                                                                                    
                                                                                                    
                                                                                                    
                                                                                                    
                                                                                                    
                                                                                                    
                                                                                                    
                           
<?xpacket end="w"?></metadata>
<defs>
    <style>
      .cls-1 {
        fill: #fff;
        fill-rule: evenodd;
      }
    </style>
  </defs>
  <path id="形状_1729_拷贝_5" data-name="形状 1729 拷贝 5" class="cls-1" d="M3976.98,3910.55c0-5.85,5.19-10.6,11.57-10.6s11.58,4.75,11.58,10.6-5.19,10.6-11.58,10.6-11.57-4.74-11.57-10.6h0Zm54,66.48c-20.61,0-37.51-14.86-38.57-33.48a1.847,1.847,0,0,1,1.93-1.85h11.6a1.889,1.889,0,0,1,1.95,1.63c0.91,10.94,10.92,19.57,23.09,19.57s22.2-8.63,23.1-19.57a1.889,1.889,0,0,1,1.95-1.63h11.59a1.835,1.835,0,0,1,1.93,1.85c-1.06,18.62-17.95,33.48-38.57,33.48h0Zm42.43-55.88c-6.39,0-11.57-4.74-11.57-10.6s5.18-10.6,11.57-10.6,11.57,4.75,11.57,10.6-5.18,10.6-11.57,10.6h0Zm0,0" transform="translate(-3920.97 -3828.5)"/>
</svg>
