<svg id="_75_" data-name="75%" xmlns="http://www.w3.org/2000/svg" width="220" height="220" viewBox="0 0 220 220">
  <defs>
    <style>
      .cls-1 {
        fill: transparent;
      }

      .cls-2 {
        fill: #454545;
      }

      .cls-2, .cls-3 {
        fill-rule: evenodd;
      }

      .cls-3 {
        fill: #2eb3ff;
      }
    </style>
  </defs>
  <circle id="椭圆_8_拷贝_2" data-name="椭圆 8 拷贝 2" class="cls-1" cx="110" cy="110" r="110"/>
  <path id="_0_拷贝" data-name="0% 拷贝" class="cls-2" d="M3370.98,750.034a32,32,0,0,1,9.04,21.991v0.35l-0.01.049v0.617a100.625,100.625,0,0,1-29.4,70.26,2.277,2.277,0,1,1-3.23-3.21,96.072,96.072,0,0,0,28.08-67.884v0.17a27.458,27.458,0,0,0-7.75-19.177,2.275,2.275,0,1,1,3.27-3.164v0Zm-22.84,3.816a18.353,18.353,0,0,1,18.19,17.6l0.01,0.355a1.569,1.569,0,0,1,.01.218v0.889a85.468,85.468,0,0,1-35.78,68.629,2.275,2.275,0,1,1-2.66-3.692,80.937,80.937,0,0,0,33.89-65.675v0.2a13.823,13.823,0,0,0-13.66-13.976,13.681,13.681,0,0,0-12.73,8.876,2.276,2.276,0,0,1-4.25-1.627,18.226,18.226,0,0,1,16.98-11.8h0Zm43.26,15.9a2.277,2.277,0,0,1,2.28,2.275,113.827,113.827,0,0,1-22.71,68.423,2.277,2.277,0,1,1-3.65-2.723,109.324,109.324,0,0,0,21.8-65.7,2.277,2.277,0,0,1,2.28-2.275h0Zm-44.02,0a2.277,2.277,0,0,1,2.28,2.275,72.269,72.269,0,0,1-37.63,63.366,2.277,2.277,0,1,1-2.2-3.987,67.719,67.719,0,0,0,35.27-59.379,2.277,2.277,0,0,1,2.28-2.275h0Zm29.74-48.775a58.867,58.867,0,0,1,30.22,51.007v1.344a127.228,127.228,0,0,1-12.74,54.356,2.277,2.277,0,0,1-4.1-1.984,122.668,122.668,0,0,0,12.29-53.566v0.242a54.307,54.307,0,0,0-27.9-47.432,2.276,2.276,0,0,1,2.23-3.969v0Zm-56.05,84.782a2.258,2.258,0,0,1,.34,3.2,59.29,59.29,0,0,1-23.65,17.6,2.276,2.276,0,1,1-1.73-4.209,54.716,54.716,0,0,0,21.84-16.251,2.275,2.275,0,0,1,3.2-.34v0Zm27.07-65.4a31.642,31.642,0,0,1,14.85,3.679,2.277,2.277,0,1,1-2.14,4.018,27.046,27.046,0,0,0-12.71-3.148,27.4,27.4,0,0,0-27.32,27.476l-0.01.048v0.243a45.5,45.5,0,0,1-33.34,43.193,2.274,2.274,0,1,1-1.21-4.384,40.969,40.969,0,0,0,30-39.452V771.84a31.96,31.96,0,0,1,31.88-31.49v0Zm-43.34,34.827a2.267,2.267,0,0,1,1.83,2.645,31.963,31.963,0,0,1-26.76,25.9,2.274,2.274,0,1,1-.65-4.5,27.407,27.407,0,0,0,22.93-22.21,2.281,2.281,0,0,1,2.65-1.83h0Zm27.45-3.027a2.282,2.282,0,0,1,2.18,2.367,58.468,58.468,0,0,1-8.34,27.758,2.274,2.274,0,0,1-2,1.149,2.273,2.273,0,0,1-1.9-3.493,53.911,53.911,0,0,0,7.69-25.6,2.229,2.229,0,0,1,.73-1.58,2.271,2.271,0,0,1,1.64-.6h0Zm15.89-58.71a59.273,59.273,0,0,1,21.46,3.992,2.276,2.276,0,0,1-1.65,4.241,54.722,54.722,0,0,0-74.46,50.7v0.181a18.544,18.544,0,0,1-10.88,16.43,17.845,17.845,0,0,1-7.33,1.565,2.275,2.275,0,1,1,0-4.549,13.318,13.318,0,0,0,5.47-1.168,13.988,13.988,0,0,0,8.19-12.809v-0.082l0.01-.543a59.066,59.066,0,0,1,59.19-57.957h0Zm60.47,18.55A71.712,71.712,0,0,1,3421,772.375a2.275,2.275,0,1,1-4.55,0,67.174,67.174,0,0,0-11.61-37.834,2.277,2.277,0,0,1,3.77-2.551v0Zm-112.97-6.526a2.286,2.286,0,0,1,.26,3.208,67.221,67.221,0,0,0-16.07,43.7,2.275,2.275,0,0,1-4.55,0,71.785,71.785,0,0,1,17.15-46.647,2.279,2.279,0,0,1,3.21-.263v0Zm27.88,11.3a2.267,2.267,0,0,1-.41,3.19,40.854,40.854,0,0,0-15.88,29.946,2.279,2.279,0,1,1-4.55-.27,45.39,45.39,0,0,1,17.65-33.276,2.274,2.274,0,0,1,3.19.41h0Zm24.62-9.875a45.542,45.542,0,0,1,44.26,34.745,2.274,2.274,0,0,1-4.42,1.071,41.035,41.035,0,0,0-57.64-27.215,2.275,2.275,0,1,1-1.98-4.1,45.383,45.383,0,0,1,19.78-4.5h0Zm0-26.891a72.89,72.89,0,0,1,55.68,25.691,2.276,2.276,0,1,1-3.47,2.946,68.65,68.65,0,0,0-98.7-5.959,2.276,2.276,0,1,1-3.09-3.342A72.891,72.891,0,0,1,3348.14,700h0Zm0,0" transform="translate(-3237 -662)"/>
  <path id="_0_拷贝_3" data-name="0% 拷贝 3" class="cls-3" d="M3304.8,775.179a2.267,2.267,0,0,1,1.83,2.645,31.963,31.963,0,0,1-26.76,25.9,2.274,2.274,0,1,1-.65-4.5,27.407,27.407,0,0,0,22.93-22.21,2.281,2.281,0,0,1,2.65-1.83h0Zm-22.19,13.807a17.845,17.845,0,0,1-7.33,1.565,2.275,2.275,0,1,1,0-4.549,13.318,13.318,0,0,0,5.47-1.168m0,0a13.988,13.988,0,0,0,8.19-12.809v-0.082l0.01-.543a59.066,59.066,0,0,1,59.19-57.957h0a59.273,59.273,0,0,1,21.46,3.992,2.276,2.276,0,0,1-1.65,4.241,54.722,54.722,0,0,0-74.46,50.7v0.181a18.544,18.544,0,0,1-10.88,16.43" transform="translate(-3237 -662)"/>
  <path id="_75" data-name="75" class="cls-3" d="M3370.98,750.034a32,32,0,0,1,9.04,21.991v0.35l-0.01.049v0.617a100.625,100.625,0,0,1-29.4,70.26,2.277,2.277,0,1,1-3.23-3.21,96.072,96.072,0,0,0,28.08-67.884v0.17a27.458,27.458,0,0,0-7.75-19.177,2.275,2.275,0,1,1,3.27-3.164v0Zm-22.84,3.816a18.353,18.353,0,0,1,18.19,17.6l0.01,0.355a1.569,1.569,0,0,1,.01.218v0.889a85.468,85.468,0,0,1-35.78,68.629,2.275,2.275,0,1,1-2.66-3.692,80.937,80.937,0,0,0,33.89-65.675v0.2a13.823,13.823,0,0,0-13.66-13.976,13.681,13.681,0,0,0-12.73,8.876,2.276,2.276,0,0,1-4.25-1.627,18.226,18.226,0,0,1,16.98-11.8h0Zm43.26,15.9a2.277,2.277,0,0,1,2.28,2.275,113.827,113.827,0,0,1-22.71,68.423,2.277,2.277,0,1,1-3.65-2.723,109.324,109.324,0,0,0,21.8-65.7,2.277,2.277,0,0,1,2.28-2.275h0ZM3309.83,831.4a67.719,67.719,0,0,0,35.27-59.379,2.277,2.277,0,0,1,2.28-2.275h0a2.277,2.277,0,0,1,2.28,2.275,72.269,72.269,0,0,1-37.63,63.366,2.277,2.277,0,1,1-2.2-3.987m-12.07-4.845a2.276,2.276,0,1,1-1.73-4.209m0,0a54.716,54.716,0,0,0,21.84-16.251,2.275,2.275,0,0,1,3.2-.34v0a2.258,2.258,0,0,1,.34,3.2,59.29,59.29,0,0,1-23.65,17.6m50.38-86.207a31.642,31.642,0,0,1,14.85,3.679,2.277,2.277,0,1,1-2.14,4.018,27.046,27.046,0,0,0-12.71-3.148,27.4,27.4,0,0,0-27.32,27.476l-0.01.048v0.243a45.5,45.5,0,0,1-33.34,43.193,2.274,2.274,0,1,1-1.21-4.384,40.969,40.969,0,0,0,30-39.452V771.84a31.96,31.96,0,0,1,31.88-31.49v0Zm-25.95,59.581a53.911,53.911,0,0,0,7.69-25.6,2.229,2.229,0,0,1,.73-1.58,2.271,2.271,0,0,1,1.64-.6h0a2.282,2.282,0,0,1,2.18,2.367,58.468,58.468,0,0,1-8.34,27.758,2.274,2.274,0,0,1-2,1.149,2.273,2.273,0,0,1-1.9-3.493m1.33-63.167a2.267,2.267,0,0,1-.41,3.19,40.854,40.854,0,0,0-15.88,29.946,2.279,2.279,0,1,1-4.55-.27,45.39,45.39,0,0,1,17.65-33.276,2.274,2.274,0,0,1,3.19.41h0Zm24.62-9.875a45.542,45.542,0,0,1,44.26,34.745,2.274,2.274,0,0,1-4.42,1.071,41.035,41.035,0,0,0-57.64-27.215,2.275,2.275,0,1,1-1.98-4.1,45.383,45.383,0,0,1,19.78-4.5h0Z" transform="translate(-3237 -662)"/>
</svg>
