<svg xmlns="http://www.w3.org/2000/svg" width="16" height="16" viewBox="0 0 16 16">
  <metadata><?xpacket begin="﻿" id="W5M0MpCehiHzreSzNTczkc9d"?>
<x:xmpmeta xmlns:x="adobe:ns:meta/" x:xmptk="Adobe XMP Core 5.6-c138 79.159824, 2016/09/14-01:09:01        ">
   <rdf:RDF xmlns:rdf="http://www.w3.org/1999/02/22-rdf-syntax-ns#">
      <rdf:Description rdf:about=""/>
   </rdf:RDF>
</x:xmpmeta>
                                                                                                    
                                                                                                    
                                                                                                    
                                                                                                    
                                                                                                    
                                                                                                    
                                                                                                    
                                                                                                    
                                                                                                    
                                                                                                    
                                                                                                    
                                                                                                    
                                                                                                    
                                                                                                    
                                                                                                    
                                                                                                    
                                                                                                    
                                                                                                    
                                                                                                    
                                                                                                    
                           
<?xpacket end="w"?></metadata>
<defs>
    <style>
      .cls-1 {
        fill: #fff;
        fill-rule: evenodd;
      }
    </style>
  </defs>
  <path id="字体设置icon" class="cls-1" d="M550.66,449.779v-1.2a3.33,3.33,0,0,1-1.028,1.039,3.172,3.172,0,0,1-1.609.4,2.247,2.247,0,0,1-1.718-.676,2.568,2.568,0,0,1-.649-1.831,2.785,2.785,0,0,1,1.042-2.391,3.736,3.736,0,0,1,2.3-.659l1.568-.017v-0.214a1.492,1.492,0,0,0-1.582-1.781,1.727,1.727,0,0,0-1.136.329,1.589,1.589,0,0,0-.554,1.122h-1.421a3.188,3.188,0,0,1,1.055-2.243,3.287,3.287,0,0,1,2.151-.627,2.7,2.7,0,0,1,2.272.94,3.828,3.828,0,0,1,.636,2.375v5.442H550.66Zm-0.095-4.007-1.473.016q-1.962,0-1.961,1.666a1.106,1.106,0,0,0,1.216,1.171,2.167,2.167,0,0,0,1.61-.66,2.511,2.511,0,0,0,.608-1.748v-0.445Zm-7.939.973h-4.151l-0.906,3.034H536l3.719-11.774H541.4l3.719,11.774h-1.582Zm-2.042-6.811H540.53l-1.609,5.327h3.26Z" transform="translate(-536 -436)"/>
</svg>
