<svg xmlns="http://www.w3.org/2000/svg" width="220" height="220" viewBox="0 0 220 220">
  <metadata><?xpacket begin="﻿" id="W5M0MpCehiHzreSzNTczkc9d"?>
<x:xmpmeta xmlns:x="adobe:ns:meta/" x:xmptk="Adobe XMP Core 5.6-c138 79.159824, 2016/09/14-01:09:01        ">
   <rdf:RDF xmlns:rdf="http://www.w3.org/1999/02/22-rdf-syntax-ns#">
      <rdf:Description rdf:about=""/>
   </rdf:RDF>
</x:xmpmeta>
                                                                                                    
                                                                                                    
                                                                                                    
                                                                                                    
                                                                                                    
                                                                                                    
                                                                                                    
                                                                                                    
                                                                                                    
                                                                                                    
                                                                                                    
                                                                                                    
                                                                                                    
                                                                                                    
                                                                                                    
                                                                                                    
                                                                                                    
                                                                                                    
                                                                                                    
                                                                                                    
                           
<?xpacket end="w"?></metadata>
<defs>
    <style>
      .cls-1 {
        fill: #fff;
        fill-rule: evenodd;
      }
    </style>
  </defs>
  <path id="虹膜_icon_拷贝" data-name="虹膜 icon 拷贝" class="cls-1" d="M4092.17,2763.47c-13.48,26.96-33.85,40.53-61.18,40.53s-47.7-13.57-61.18-40.52a7.731,7.731,0,0,1,0-6.95q20.22-40.455,61.18-40.53,40.98,0,61.18,40.52A7.794,7.794,0,0,1,4092.17,2763.47Zm-61.18-37.75c-22.94,0-39.74,11.03-51.58,34.28,11.84,23.24,28.64,34.28,51.58,34.28s39.74-11.04,51.58-34.28C4070.72,2736.75,4053.93,2725.72,4030.99,2725.72Zm-0.57,58.03c-13.83,0-25.03-10.63-25.03-23.75s11.2-23.76,25.03-23.76,25.03,10.64,25.03,23.76S4044.24,2783.75,4030.42,2783.75Zm0-38.87c-8.81,0-15.93,6.76-15.93,15.12s7.12,15.11,15.93,15.11,15.92-6.76,15.92-15.11S4039.22,2744.88,4030.42,2744.88Z" transform="translate(-3921 -2650)"/>
</svg>
