<svg xmlns="http://www.w3.org/2000/svg" width="16" height="16" viewBox="0 0 16 16">
  <metadata><?xpacket begin="﻿" id="W5M0MpCehiHzreSzNTczkc9d"?>
<x:xmpmeta xmlns:x="adobe:ns:meta/" x:xmptk="Adobe XMP Core 5.6-c138 79.159824, 2016/09/14-01:09:01        ">
   <rdf:RDF xmlns:rdf="http://www.w3.org/1999/02/22-rdf-syntax-ns#">
      <rdf:Description rdf:about=""/>
   </rdf:RDF>
</x:xmpmeta>
                                                                                                    
                                                                                                    
                                                                                                    
                                                                                                    
                                                                                                    
                                                                                                    
                                                                                                    
                                                                                                    
                                                                                                    
                                                                                                    
                                                                                                    
                                                                                                    
                                                                                                    
                                                                                                    
                                                                                                    
                                                                                                    
                                                                                                    
                                                                                                    
                                                                                                    
                                                                                                    
                           
<?xpacket end="w"?></metadata>
<defs>
    <style>
      .cls-1 {
        fill: #fff;
        fill-rule: evenodd;
      }
    </style>
  </defs>
  <path id="鼠标设置icon" class="cls-1" d="M545.6,284H544.4a5.3,5.3,0,0,1-5.4-5.177v-5.646A5.3,5.3,0,0,1,544.4,268H545.6a5.3,5.3,0,0,1,5.4,5.177v5.646A5.3,5.3,0,0,1,545.6,284Zm3.961-10.823a3.89,3.89,0,0,0-3.961-3.8H544.4a3.891,3.891,0,0,0-3.962,3.8v5.646a3.891,3.891,0,0,0,3.962,3.8H545.6a3.89,3.89,0,0,0,3.961-3.8v-5.646Zm-5.311-2.4h1.436v3.636h-1.436v-3.636Z" transform="translate(-537 -268)"/>
</svg>
