<svg xmlns="http://www.w3.org/2000/svg" width="16" height="16" viewBox="0 0 16 16">
  <metadata><?xpacket begin="﻿" id="W5M0MpCehiHzreSzNTczkc9d"?>
<x:xmpmeta xmlns:x="adobe:ns:meta/" x:xmptk="Adobe XMP Core 5.6-c138 79.159824, 2016/09/14-01:09:01        ">
   <rdf:RDF xmlns:rdf="http://www.w3.org/1999/02/22-rdf-syntax-ns#">
      <rdf:Description rdf:about=""/>
   </rdf:RDF>
</x:xmpmeta>
                                                                                                    
                                                                                                    
                                                                                                    
                                                                                                    
                                                                                                    
                                                                                                    
                                                                                                    
                                                                                                    
                                                                                                    
                                                                                                    
                                                                                                    
                                                                                                    
                                                                                                    
                                                                                                    
                                                                                                    
                                                                                                    
                                                                                                    
                                                                                                    
                                                                                                    
                                                                                                    
                           
<?xpacket end="w"?></metadata>
<defs>
    <style>
      .cls-1 {
        fill: #fff;
        fill-rule: evenodd;
      }
    </style>
  </defs>
  <path id="桌面壁纸icon" class="cls-1" d="M552.428,283H537.571a0.58,0.58,0,0,1-.571-0.591V270.591a0.58,0.58,0,0,1,.571-0.591h14.857a0.58,0.58,0,0,1,.571.591v11.818A0.58,0.58,0,0,1,552.428,283Zm-0.714-11.671H538.286V279.1l2.364-2.9a0.139,0.139,0,0,1,.218,0l2.571,3.152,4.061-4.978a0.138,0.138,0,0,1,.218,0l4,4.9v-7.944Zm0,9.78-4.105-5.034-4.17,5.112-2.68-3.287-2.473,3.034v0.736h13.428v-0.561Zm-10.429-5.643a1.626,1.626,0,1,1,1.572-1.625A1.6,1.6,0,0,1,541.285,275.466Zm0-2.142a0.517,0.517,0,1,0,.5.517A0.508,0.508,0,0,0,541.285,273.324Z" transform="translate(-537 -268.5)"/>
</svg>
