<svg xmlns="http://www.w3.org/2000/svg" width="16" height="16" viewBox="0 0 16 16">
  <metadata><?xpacket begin="﻿" id="W5M0MpCehiHzreSzNTczkc9d"?>
<x:xmpmeta xmlns:x="adobe:ns:meta/" x:xmptk="Adobe XMP Core 5.6-c138 79.159824, 2016/09/14-01:09:01        ">
   <rdf:RDF xmlns:rdf="http://www.w3.org/1999/02/22-rdf-syntax-ns#">
      <rdf:Description rdf:about=""/>
   </rdf:RDF>
</x:xmpmeta>
                                                                                                    
                                                                                                    
                                                                                                    
                                                                                                    
                                                                                                    
                                                                                                    
                                                                                                    
                                                                                                    
                                                                                                    
                                                                                                    
                                                                                                    
                                                                                                    
                                                                                                    
                                                                                                    
                                                                                                    
                                                                                                    
                                                                                                    
                                                                                                    
                                                                                                    
                                                                                                    
                           
<?xpacket end="w"?></metadata>
<defs>
    <style>
      .cls-1 {
        fill: #fff;
        fill-rule: evenodd;
      }
    </style>
  </defs>
  <path id="主题设置icon" class="cls-1" d="M552.124,353h-4.1a0.753,0.753,0,0,0-.736.569,2.362,2.362,0,0,1-4.569,0,0.751,0.751,0,0,0-.736-0.569h-4.1a0.865,0.865,0,0,0-.875.855v4.9a0.865,0.865,0,0,0,.875.855h1.493v7.539a0.865,0.865,0,0,0,.875.855h9.513a0.865,0.865,0,0,0,.875-0.855v-7.539h1.493a0.866,0.866,0,0,0,.876-0.855v-4.9a0.866,0.866,0,0,0-.876-0.855h0Zm-0.557,5.207H549.2V366.6h-8.4v-8.394h-2.368V354.4h3.05a3.817,3.817,0,0,0,7.033,0h3.051v3.808Zm0,0" transform="translate(-537 -352.5)"/>
</svg>
