<svg xmlns="http://www.w3.org/2000/svg" width="16" height="16" viewBox="0 0 16 16">
  <metadata><?xpacket begin="﻿" id="W5M0MpCehiHzreSzNTczkc9d"?>
<x:xmpmeta xmlns:x="adobe:ns:meta/" x:xmptk="Adobe XMP Core 5.6-c138 79.159824, 2016/09/14-01:09:01        ">
   <rdf:RDF xmlns:rdf="http://www.w3.org/1999/02/22-rdf-syntax-ns#">
      <rdf:Description rdf:about=""/>
   </rdf:RDF>
</x:xmpmeta>
                                                                                                    
                                                                                                    
                                                                                                    
                                                                                                    
                                                                                                    
                                                                                                    
                                                                                                    
                                                                                                    
                                                                                                    
                                                                                                    
                                                                                                    
                                                                                                    
                                                                                                    
                                                                                                    
                                                                                                    
                                                                                                    
                                                                                                    
                                                                                                    
                                                                                                    
                                                                                                    
                           
<?xpacket end="w"?></metadata>
<defs>
    <style>
      .cls-1 {
        fill: #fff;
        fill-rule: evenodd;
      }
    </style>
  </defs>
  <path id="语言设置icon" class="cls-1" d="M2085,409h-12a2,2,0,0,1-2-2V395a2,2,0,0,1,2-2h12a2,2,0,0,1,2,2v12A2,2,0,0,1,2085,409Zm1-13a2,2,0,0,0-2-2h-10a2,2,0,0,0-2,2v10a2,2,0,0,0,2,2h10a2,2,0,0,0,2-2V396Zm-2.98,5.959a1.07,1.07,0,0,0-1.11-1.3,0.968,0.968,0,0,0-.73.314,1.584,1.584,0,0,0-.4.971V405h-0.97v-5.072h0.97v0.628a1.839,1.839,0,0,1,.64-0.569,1.571,1.571,0,0,1,.8-0.2c1.18,0,1.78.693,1.78,2.079V405h-0.98v-3.041ZM2074,398h4.72v0.913H2075v2.04h3.5v0.913H2075v2.227h3.88V405H2074v-7Z" transform="translate(-2071 -393)"/>
</svg>