<svg id="time_zone" data-name="time zone" xmlns="http://www.w3.org/2000/svg" width="16" height="16" viewBox="0 0 16 16">
  <metadata><?xpacket begin="﻿" id="W5M0MpCehiHzreSzNTczkc9d"?>
<x:xmpmeta xmlns:x="adobe:ns:meta/" x:xmptk="Adobe XMP Core 5.6-c138 79.159824, 2016/09/14-01:09:01        ">
   <rdf:RDF xmlns:rdf="http://www.w3.org/1999/02/22-rdf-syntax-ns#">
      <rdf:Description rdf:about=""/>
   </rdf:RDF>
</x:xmpmeta>
                                                                                                    
                                                                                                    
                                                                                                    
                                                                                                    
                                                                                                    
                                                                                                    
                                                                                                    
                                                                                                    
                                                                                                    
                                                                                                    
                                                                                                    
                                                                                                    
                                                                                                    
                                                                                                    
                                                                                                    
                                                                                                    
                                                                                                    
                                                                                                    
                                                                                                    
                                                                                                    
                           
<?xpacket end="w"?></metadata>
<defs>
    <style type="text/css">
      .cls-1 {
        fill: #fff;
        fill-rule: evenodd;
      }
    </style>
  </defs>
  <path id="形状_537_拷贝_6" data-name="形状 537 拷贝 6" class="cls-1" d="M563.053,624.3a11.842,11.842,0,0,1-2.089,2.843,16.674,16.674,0,0,1-3.545,2.75,0.861,0.861,0,0,1-.842,0,16.7,16.7,0,0,1-3.546-2.75,11.936,11.936,0,0,1-2.089-2.843,8.192,8.192,0,0,1-.942-3.752,6.147,6.147,0,0,1,.553-2.554,6.547,6.547,0,0,1,1.5-2.08,7.03,7.03,0,0,1,2.224-1.4,7.462,7.462,0,0,1,5.438,0,7.006,7.006,0,0,1,2.224,1.4,6.514,6.514,0,0,1,1.5,2.08,6.158,6.158,0,0,1,.553,2.553A8.118,8.118,0,0,1,563.053,624.3ZM561,616.839a5.946,5.946,0,0,0-7.994,0,5.043,5.043,0,0,0-1.648,3.709c0,4.339,4.4,7.322,5.645,8.075,1.24-.753,5.645-3.736,5.645-8.075A5.036,5.036,0,0,0,561,616.839Z" transform="translate(-549 -614)"/>
  <path id="矩形_1396_拷贝_7" data-name="矩形 1396 拷贝 7" class="cls-1" d="M560,623h-5v-5h1v4h4v1Z" transform="translate(-549 -614)"/>
</svg>
