<svg xmlns="http://www.w3.org/2000/svg" width="14" height="14" viewBox="0 0 14 14">
  <metadata><?xpacket begin="﻿" id="W5M0MpCehiHzreSzNTczkc9d"?>
<x:xmpmeta xmlns:x="adobe:ns:meta/" x:xmptk="Adobe XMP Core 5.6-c138 79.159824, 2016/09/14-01:09:01        ">
   <rdf:RDF xmlns:rdf="http://www.w3.org/1999/02/22-rdf-syntax-ns#">
      <rdf:Description rdf:about=""/>
   </rdf:RDF>
</x:xmpmeta>
                                                                                                    
                                                                                                    
                                                                                                    
                                                                                                    
                                                                                                    
                                                                                                    
                                                                                                    
                                                                                                    
                                                                                                    
                                                                                                    
                                                                                                    
                                                                                                    
                                                                                                    
                                                                                                    
                                                                                                    
                                                                                                    
                                                                                                    
                                                                                                    
                                                                                                    
                                                                                                    
                           
<?xpacket end="w"?></metadata>
<defs>
    <style>
      .cls-1 {
        fill: #fff;
        fill-rule: evenodd;
      }
    </style>
  </defs>
  <path id="图片icon" class="cls-1" d="M1486.5,1796h-13a0.52,0.52,0,0,0-.5.55v10.9a0.52,0.52,0,0,0,.5.55h13a0.52,0.52,0,0,0,.5-0.55v-10.9a0.52,0.52,0,0,0-.5-0.55h0Zm-0.63,10.77h-11.75v-0.68l2.17-2.8,2.34,3.04,3.65-4.72,3.59,4.64v0.52Zm0-2.21-3.49-4.52a0.112,0.112,0,0,0-.19,0l-3.56,4.59-2.25-2.91a0.123,0.123,0,0,0-.19,0l-2.07,2.68v-7.17h11.75v7.33Zm0,0-9.12-3.51a1.505,1.505,0,1,0-1.38-1.5,1.443,1.443,0,0,0,1.38,1.5h0Zm0-1.98a0.476,0.476,0,1,1-.44.48,0.46,0.46,0,0,1,.44-0.48h0Zm0,0" transform="translate(-1473 -1795)"/>
</svg>
