<svg xmlns="http://www.w3.org/2000/svg" width="14" height="14" viewBox="0 0 14 14">
  <metadata><?xpacket begin="﻿" id="W5M0MpCehiHzreSzNTczkc9d"?>
<x:xmpmeta xmlns:x="adobe:ns:meta/" x:xmptk="Adobe XMP Core 5.6-c138 79.159824, 2016/09/14-01:09:01        ">
   <rdf:RDF xmlns:rdf="http://www.w3.org/1999/02/22-rdf-syntax-ns#">
      <rdf:Description rdf:about=""/>
   </rdf:RDF>
</x:xmpmeta>
                                                                                                    
                                                                                                    
                                                                                                    
                                                                                                    
                                                                                                    
                                                                                                    
                                                                                                    
                                                                                                    
                                                                                                    
                                                                                                    
                                                                                                    
                                                                                                    
                                                                                                    
                                                                                                    
                                                                                                    
                                                                                                    
                                                                                                    
                                                                                                    
                                                                                                    
                                                                                                    
                           
<?xpacket end="w"?></metadata>
<defs>
    <style>
      .cls-1 {
        fill: #fff;
        fill-rule: evenodd;
      }
    </style>
  </defs>
  <path id="终端icon" class="cls-1" d="M1480.07,1870.82a0.142,0.142,0,0,0,.13.14h3.24a0.142,0.142,0,0,0,.13-0.14v-0.84a0.135,0.135,0,0,0-.13-0.14h-3.24a0.135,0.135,0,0,0-.13.14v0.84Zm-3.41.1,3.36-2.81a0.141,0.141,0,0,0,0-.22l-3.36-2.81a0.137,0.137,0,0,0-.23.1v1.1a0.161,0.161,0,0,0,.05.11l1.92,1.61-1.92,1.61a0.161,0.161,0,0,0-.05.11v1.1a0.137,0.137,0,0,0,.23.1h0Zm0,0,9.78-9.92h-12.88a0.559,0.559,0,0,0-.56.56v12.88a0.559,0.559,0,0,0,.56.56h12.88a0.559,0.559,0,0,0,.56-0.56v-12.88a0.559,0.559,0,0,0-.56-0.56h0Zm-0.7,12.74h-11.48v-11.48h11.48v11.48Zm0,0" transform="translate(-1473 -1861)"/>
</svg>
