<svg xmlns="http://www.w3.org/2000/svg" width="14" height="14" viewBox="0 0 14 14">
  <metadata><?xpacket begin="﻿" id="W5M0MpCehiHzreSzNTczkc9d"?>
<x:xmpmeta xmlns:x="adobe:ns:meta/" x:xmptk="Adobe XMP Core 5.6-c138 79.159824, 2016/09/14-01:09:01        ">
   <rdf:RDF xmlns:rdf="http://www.w3.org/1999/02/22-rdf-syntax-ns#">
      <rdf:Description rdf:about=""/>
   </rdf:RDF>
</x:xmpmeta>
                                                                                                    
                                                                                                    
                                                                                                    
                                                                                                    
                                                                                                    
                                                                                                    
                                                                                                    
                                                                                                    
                                                                                                    
                                                                                                    
                                                                                                    
                                                                                                    
                                                                                                    
                                                                                                    
                                                                                                    
                                                                                                    
                                                                                                    
                                                                                                    
                                                                                                    
                                                                                                    
                           
<?xpacket end="w"?></metadata>
<defs>
    <style>
      .cls-1 {
        fill: #fff;
        fill-rule: evenodd;
      }
    </style>
  </defs>
  <path id="文本icon" class="cls-1" d="M1486.84,1600.51l-3.67-3.36a0.537,0.537,0,0,0-.38-0.15h-7.24a0.52,0.52,0,0,0-.55.5v13a0.52,0.52,0,0,0,.55.5h10.9a0.52,0.52,0,0,0,.55-0.5v-9.64a0.479,0.479,0,0,0-.16-0.35h0Zm-1.1.58h-3.21v-2.94Zm0.03,8.78h-9.54v-11.75h5.14v3.38a0.7,0.7,0,0,0,.72.66h3.68v7.71Zm0,0-4.91-4.21h-3.13a0.127,0.127,0,0,0-.14.12v0.75a0.135,0.135,0,0,0,.14.13h3.13a0.135,0.135,0,0,0,.14-0.13v-0.75a0.127,0.127,0,0,0-.14-0.12h0Zm-3.27-2v0.75a0.134,0.134,0,0,0,.14.12h6.54a0.134,0.134,0,0,0,.14-0.12v-0.75a0.135,0.135,0,0,0-.14-0.13h-6.54a0.135,0.135,0,0,0-.14.13h0Zm0,0" transform="translate(-1474 -1597)"/>
</svg>
