<svg xmlns="http://www.w3.org/2000/svg" width="14" height="14" viewBox="0 0 14 14">
  <metadata><?xpacket begin="﻿" id="W5M0MpCehiHzreSzNTczkc9d"?>
<x:xmpmeta xmlns:x="adobe:ns:meta/" x:xmptk="Adobe XMP Core 5.6-c138 79.159824, 2016/09/14-01:09:01        ">
   <rdf:RDF xmlns:rdf="http://www.w3.org/1999/02/22-rdf-syntax-ns#">
      <rdf:Description rdf:about=""/>
   </rdf:RDF>
</x:xmpmeta>
                                                                                                    
                                                                                                    
                                                                                                    
                                                                                                    
                                                                                                    
                                                                                                    
                                                                                                    
                                                                                                    
                                                                                                    
                                                                                                    
                                                                                                    
                                                                                                    
                                                                                                    
                                                                                                    
                                                                                                    
                                                                                                    
                                                                                                    
                                                                                                    
                                                                                                    
                                                                                                    
                           
<?xpacket end="w"?></metadata>
<defs>
    <style>
      .cls-1 {
        fill: #fff;
        fill-rule: evenodd;
      }
    </style>
  </defs>
  <path id="视频icon" class="cls-1" d="M1480,1729a7,7,0,1,0,7,7,6.995,6.995,0,0,0-7-7h0Zm0,12.81a5.81,5.81,0,1,1,5.81-5.81,5.808,5.808,0,0,1-5.81,5.81h0Zm0,0,3.24-6.01-4.63-3.36a0.246,0.246,0,0,0-.39.2v6.72a0.246,0.246,0,0,0,.39.2l4.63-3.36a0.243,0.243,0,0,0,0-.4h0Zm-4.02,2.09v-3.78l2.6,1.89Zm0,0" transform="translate(-1473 -1729)"/>
</svg>
