<svg xmlns="http://www.w3.org/2000/svg" width="16" height="16" viewBox="0 0 16 16">
  <defs>
    <style>
      .cls-1 {
        fill: #77ceff;
        fill-rule: evenodd;
      }
    </style>
  </defs>
  <path id="回收站" class="cls-1" d="M3169.84,613.32h-1.18l-0.48,10.46a1.261,1.261,0,0,1-1.25,1.22h-8.86a1.263,1.263,0,0,1-1.25-1.22l-0.48-10.46h-1.18a0.159,0.159,0,0,1-.16-0.16v-0.64a0.631,0.631,0,0,1,.62-0.64h2.5v-1.6a1.273,1.273,0,0,1,1.25-1.28h6.25a1.266,1.266,0,0,1,1.25,1.28v1.6h2.5a0.633,0.633,0,0,1,.63.64v0.64A0.159,0.159,0,0,1,3169.84,613.32Zm-4.22-2.88a0.157,0.157,0,0,1-.15-0.16v0.16h-5.94v-0.16a0.159,0.159,0,0,1-.16.16h0.16v1.44h5.94v-1.44h0.15Zm-7.88,2.88,0.48,10.24h8.56l0.48-10.24h-9.52Z" transform="translate(-3154.5 -609)"/>
</svg>
