<svg id="Flip_horizontally_btn_check" data-name="Flip horizontally_btn_check" xmlns="http://www.w3.org/2000/svg" width="40" height="24" viewBox="0 0 40 24">
  <metadata><?xpacket begin="﻿" id="W5M0MpCehiHzreSzNTczkc9d"?>
<x:xmpmeta xmlns:x="adobe:ns:meta/" x:xmptk="Adobe XMP Core 5.6-c138 79.159824, 2016/09/14-01:09:01        ">
   <rdf:RDF xmlns:rdf="http://www.w3.org/1999/02/22-rdf-syntax-ns#">
      <rdf:Description rdf:about=""/>
   </rdf:RDF>
</x:xmpmeta>
                                                                                                    
                                                                                                    
                                                                                                    
                                                                                                    
                                                                                                    
                                                                                                    
                                                                                                    
                                                                                                    
                                                                                                    
                                                                                                    
                                                                                                    
                                                                                                    
                                                                                                    
                                                                                                    
                                                                                                    
                                                                                                    
                                                                                                    
                                                                                                    
                                                                                                    
                                                                                                    
                           
<?xpacket end="w"?></metadata>
<defs>
    <style>
      .cls-1 {
        fill: #2eb3ff;
      }

      .cls-2 {
        fill: #fff;
        fill-rule: evenodd;
      }
    </style>
  </defs>
  <rect id="矩形_1395_拷贝_2" data-name="矩形 1395 拷贝 2" class="cls-1" width="40" height="24" rx="4" ry="4"/>
  <path id="形状_2" data-name="形状 2" class="cls-2" d="M982.611,408.591h13.236a0.157,0.157,0,0,1,.153.159v1.194a0.156,0.156,0,0,1-.153.158H984.336l2.745,3.64a0.161,0.161,0,0,1-.12.258h-1.379a0.3,0.3,0,0,1-.24-0.121l-3.21-4.258a0.639,0.639,0,0,1,.479-1.03h0Zm-0.458-4.693h11.511l-2.745-3.639a0.161,0.161,0,0,1,.12-0.259h1.379a0.3,0.3,0,0,1,.24.121l3.21,4.258a0.639,0.639,0,0,1-.477,1.03H982.153A0.155,0.155,0,0,1,982,405.25v-1.193a0.155,0.155,0,0,1,.152-0.159h0Zm0,0" transform="translate(-969 -395)"/>
</svg>
