<svg xmlns="http://www.w3.org/2000/svg" width="14" height="14" viewBox="0 0 14 14">
  <metadata><?xpacket begin="﻿" id="W5M0MpCehiHzreSzNTczkc9d"?>
<x:xmpmeta xmlns:x="adobe:ns:meta/" x:xmptk="Adobe XMP Core 5.6-c138 79.159824, 2016/09/14-01:09:01        ">
   <rdf:RDF xmlns:rdf="http://www.w3.org/1999/02/22-rdf-syntax-ns#">
      <rdf:Description rdf:about=""/>
   </rdf:RDF>
</x:xmpmeta>
                                                                                                    
                                                                                                    
                                                                                                    
                                                                                                    
                                                                                                    
                                                                                                    
                                                                                                    
                                                                                                    
                                                                                                    
                                                                                                    
                                                                                                    
                                                                                                    
                                                                                                    
                                                                                                    
                                                                                                    
                                                                                                    
                                                                                                    
                                                                                                    
                                                                                                    
                                                                                                    
                           
<?xpacket end="w"?></metadata>
<defs>
    <style>
      .cls-1 {
        fill: #fff;
        fill-rule: evenodd;
      }
    </style>
  </defs>
  <path id="网页icon" class="cls-1" d="M1480,1479a7,7,0,1,1,7-7A6.995,6.995,0,0,1,1480,1479Zm0-12.6a5.6,5.6,0,1,0,5.6,5.6A5.6,5.6,0,0,0,1480,1466.4Zm1.5,6.78a0.694,0.694,0,0,1-.39.38l-2.94,1.19a0.857,0.857,0,0,1-.27.05,0.681,0.681,0,0,1-.49-0.29h-0.04a0.712,0.712,0,0,1-.12-0.7l1.22-2.99a0.725,0.725,0,0,1,.39-0.38l2.95-1.19a0.709,0.709,0,0,1,.91.94Zm-1.84-1.55-0.5,1.22,1.18-.48,0.5-1.22Z" transform="translate(-1473 -1465)"/>
</svg>
