<svg xmlns="http://www.w3.org/2000/svg" width="14" height="14" viewBox="0 0 14 14">
  <metadata><?xpacket begin="﻿" id="W5M0MpCehiHzreSzNTczkc9d"?>
<x:xmpmeta xmlns:x="adobe:ns:meta/" x:xmptk="Adobe XMP Core 5.6-c138 79.159824, 2016/09/14-01:09:01        ">
   <rdf:RDF xmlns:rdf="http://www.w3.org/1999/02/22-rdf-syntax-ns#">
      <rdf:Description rdf:about=""/>
   </rdf:RDF>
</x:xmpmeta>
                                                                                                    
                                                                                                    
                                                                                                    
                                                                                                    
                                                                                                    
                                                                                                    
                                                                                                    
                                                                                                    
                                                                                                    
                                                                                                    
                                                                                                    
                                                                                                    
                                                                                                    
                                                                                                    
                                                                                                    
                                                                                                    
                                                                                                    
                                                                                                    
                                                                                                    
                                                                                                    
                           
<?xpacket end="w"?></metadata>
<defs>
    <style>
      .cls-1 {
        fill: #fff;
        fill-rule: evenodd;
      }
    </style>
  </defs>
  <path id="音乐icon" class="cls-1" d="M1480,1663a7,7,0,0,0-7,7v6.56a0.437,0.437,0,0,0,.44.44h3.35a1.165,1.165,0,0,0,1.17-1.17v-3.79a1.171,1.171,0,0,0-1.17-1.17h-2.48V1670a5.69,5.69,0,0,1,11.38,0v0.87h-2.48a1.171,1.171,0,0,0-1.17,1.17v3.79a1.165,1.165,0,0,0,1.17,1.17h3.35a0.444,0.444,0,0,0,.44-0.44V1670a7,7,0,0,0-7-7h0Zm-3.35,9.19v3.5h-2.34v-3.5h2.34Zm9.04,3.5h-2.34v-3.5h2.34v3.5Zm0,0" transform="translate(-1473 -1663)"/>
</svg>
