<svg xmlns="http://www.w3.org/2000/svg" width="16" height="16" viewBox="0 0 16 16">
  <metadata><?xpacket begin="﻿" id="W5M0MpCehiHzreSzNTczkc9d"?>
<x:xmpmeta xmlns:x="adobe:ns:meta/" x:xmptk="Adobe XMP Core 5.6-c138 79.159824, 2016/09/14-01:09:01        ">
   <rdf:RDF xmlns:rdf="http://www.w3.org/1999/02/22-rdf-syntax-ns#">
      <rdf:Description rdf:about=""/>
   </rdf:RDF>
</x:xmpmeta>
                                                                                                    
                                                                                                    
                                                                                                    
                                                                                                    
                                                                                                    
                                                                                                    
                                                                                                    
                                                                                                    
                                                                                                    
                                                                                                    
                                                                                                    
                                                                                                    
                                                                                                    
                                                                                                    
                                                                                                    
                                                                                                    
                                                                                                    
                                                                                                    
                                                                                                    
                                                                                                    
                           
<?xpacket end="w"?></metadata>
<defs>
    <style>
      .cls-1 {
        fill: #fa4949;
        fill-rule: evenodd;
      }
    </style>
  </defs>
  <path id="icon_错误" class="cls-1" d="M3390.99,496l4.97-5.759a0.142,0.142,0,0,0-.11-0.241h-1.51a0.329,0.329,0,0,0-.24.105l-4.1,4.75-4.1-4.75a0.329,0.329,0,0,0-.24-0.105h-1.51a0.142,0.142,0,0,0-.11.241l4.97,5.759-4.97,5.759a0.143,0.143,0,0,0,.11.241h1.51a0.329,0.329,0,0,0,.24-0.105l4.1-4.751,4.1,4.751a0.313,0.313,0,0,0,.24.105h1.51a0.143,0.143,0,0,0,.11-0.241Zm0,0" transform="translate(-3382 -488)"/>
</svg>
