<svg xmlns="http://www.w3.org/2000/svg" width="16" height="16" viewBox="0 0 16 16">
  <metadata><?xpacket begin="﻿" id="W5M0MpCehiHzreSzNTczkc9d"?>
<x:xmpmeta xmlns:x="adobe:ns:meta/" x:xmptk="Adobe XMP Core 5.6-c138 79.159824, 2016/09/14-01:09:01        ">
   <rdf:RDF xmlns:rdf="http://www.w3.org/1999/02/22-rdf-syntax-ns#">
      <rdf:Description rdf:about=""/>
   </rdf:RDF>
</x:xmpmeta>
                                                                                                    
                                                                                                    
                                                                                                    
                                                                                                    
                                                                                                    
                                                                                                    
                                                                                                    
                                                                                                    
                                                                                                    
                                                                                                    
                                                                                                    
                                                                                                    
                                                                                                    
                                                                                                    
                                                                                                    
                                                                                                    
                                                                                                    
                                                                                                    
                                                                                                    
                                                                                                    
                           
<?xpacket end="w"?></metadata>
<defs>
    <style>
      .cls-1 {
        fill: #fff;
        fill-rule: evenodd;
      }
    </style>
  </defs>
  <path id="触摸板设置icon" class="cls-1" d="M549.4,366.526a0.546,0.546,0,0,1-.777.029,0.56,0.56,0,0,1-.028-0.785,4.961,4.961,0,0,0,1.31-3.37v-3.412a0.829,0.829,0,0,0-1.4-.622,0.794,0.794,0,0,0-.244.622,0.55,0.55,0,1,1-1.1,0V358.7a0.824,0.824,0,0,0-1.393-.7,0.919,0.919,0,0,0-.256.7,0.549,0.549,0,1,1-1.1,0v-0.291a0.826,0.826,0,0,0-1.4-.675,0.881,0.881,0,0,0-.253.675,0.549,0.549,0,1,1-1.1,0v-4.195c0-1.561-1.559-1.57-1.559,0V362.4a4.956,4.956,0,0,0,2.834,4.488h5.976a0.555,0.555,0,0,1,0,1.11H541.2a0.555,0.555,0,0,1-.19-1.074A6.088,6.088,0,0,1,539,362.4v-8.189a2.437,2.437,0,0,1,.549-1.639c0.977-1.113,3.207-.617,3.207,1.639v2.375a24.3,24.3,0,0,0,5.12.86A1.949,1.949,0,0,1,551,358.988V362.4A6.078,6.078,0,0,1,549.4,366.526Z" transform="translate(-537 -352)"/>
</svg>
