<svg id="rotation-90__btn_d" data-name="rotation-90°_btn_d" xmlns="http://www.w3.org/2000/svg" width="40" height="24" viewBox="0 0 40 24">
  <metadata><?xpacket begin="﻿" id="W5M0MpCehiHzreSzNTczkc9d"?>
<x:xmpmeta xmlns:x="adobe:ns:meta/" x:xmptk="Adobe XMP Core 5.6-c138 79.159824, 2016/09/14-01:09:01        ">
   <rdf:RDF xmlns:rdf="http://www.w3.org/1999/02/22-rdf-syntax-ns#">
      <rdf:Description rdf:about=""/>
   </rdf:RDF>
</x:xmpmeta>
                                                                                                    
                                                                                                    
                                                                                                    
                                                                                                    
                                                                                                    
                                                                                                    
                                                                                                    
                                                                                                    
                                                                                                    
                                                                                                    
                                                                                                    
                                                                                                    
                                                                                                    
                                                                                                    
                                                                                                    
                                                                                                    
                                                                                                    
                                                                                                    
                                                                                                    
                                                                                                    
                           
<?xpacket end="w"?></metadata>
<defs>
    <style>
      .cls-1 {
        fill: #2a2a2a;
      }

      .cls-2 {
        fill: #4c4c4c;
        fill-rule: evenodd;
      }
    </style>
  </defs>
  <rect id="矩形_1395" data-name="矩形 1395" class="cls-1" width="40" height="24" rx="4" ry="4"/>
  <path id="形状_1_拷贝" data-name="形状 1 拷贝" class="cls-2" d="M894.222,401.955l0.963,0.735a7.215,7.215,0,0,1,5.647-2.69,7,7,0,1,1,0,14,7.167,7.167,0,0,1-6.737-4.6,0.132,0.132,0,0,1,.084-0.171l0.968-.325a0.135,0.135,0,0,1,.172.08c0.031,0.083.065,0.166,0.1,0.248a5.709,5.709,0,0,0,1.258,1.823,5.984,5.984,0,0,0,6.434,1.23,5.81,5.81,0,0,0,1.866-1.23,5.7,5.7,0,0,0,1.259-1.823,5.643,5.643,0,0,0,0-4.463,5.7,5.7,0,0,0-1.259-1.824,5.893,5.893,0,0,0-1.866-1.23,6.021,6.021,0,0,0-4.568,0,5.865,5.865,0,0,0-1.866,1.23,5.732,5.732,0,0,0-.474.524l1.027,0.783a0.132,0.132,0,0,1-.051.235l-3,.717a0.137,0.137,0,0,1-.17-0.129L894,402.058a0.138,0.138,0,0,1,.222-0.1h0Zm0,0" transform="translate(-881 -395)"/>
</svg>
