<svg xmlns="http://www.w3.org/2000/svg" width="16" height="16" viewBox="0 0 16 16">
  <metadata><?xpacket begin="﻿" id="W5M0MpCehiHzreSzNTczkc9d"?>
<x:xmpmeta xmlns:x="adobe:ns:meta/" x:xmptk="Adobe XMP Core 5.6-c138 79.159824, 2016/09/14-01:09:01        ">
   <rdf:RDF xmlns:rdf="http://www.w3.org/1999/02/22-rdf-syntax-ns#">
      <rdf:Description rdf:about=""/>
   </rdf:RDF>
</x:xmpmeta>
                                                                                                    
                                                                                                    
                                                                                                    
                                                                                                    
                                                                                                    
                                                                                                    
                                                                                                    
                                                                                                    
                                                                                                    
                                                                                                    
                                                                                                    
                                                                                                    
                                                                                                    
                                                                                                    
                                                                                                    
                                                                                                    
                                                                                                    
                                                                                                    
                                                                                                    
                                                                                                    
                           
<?xpacket end="w"?></metadata>
<defs>
    <style>
      .cls-1 {
        fill: #fff;
        fill-rule: evenodd;
      }
    </style>
  </defs>
  <path id="驱动管理icon" class="cls-1" d="M1481.72,1535.4v-5.76a0.632,0.632,0,0,0-.61-0.64h-8.22a0.626,0.626,0,0,0-.61.64v5.76a2.3,2.3,0,0,0-2.28,2.32v7.12a0.156,0.156,0,0,0,.15.16h1.07a0.156,0.156,0,0,0,.15-0.16v-7.12a0.894,0.894,0,0,1,.91-0.88h9.43a0.9,0.9,0,0,1,.92.88v7.12a0.156,0.156,0,0,0,.15.16h1.07a0.156,0.156,0,0,0,.15-0.16v-7.12a2.3,2.3,0,0,0-2.28-2.32h0Zm-8.07,0v-4.96h6.7v4.96h-6.7Zm0,0,2.28-3.68h-0.91a0.156,0.156,0,0,0-.15.16v0.96a0.156,0.156,0,0,0,.15.16h0.91a0.158,0.158,0,0,0,.16-0.16v-0.96a0.158,0.158,0,0,0-.16-0.16h0Zm3.05,0h-0.92a0.156,0.156,0,0,0-.15.16v0.96a0.156,0.156,0,0,0,.15.16h0.92a0.156,0.156,0,0,0,.15-0.16v-0.96a0.156,0.156,0,0,0-.15-0.16h0Zm0,0" transform="translate(-1469 -1529)"/>
</svg>
