<?xml version="1.0" standalone="no"?><!DOCTYPE svg PUBLIC "-//W3C//DTD SVG 1.1//EN" "http://www.w3.org/Graphics/SVG/1.1/DTD/svg11.dtd"><svg t="1739431935935" class="icon" viewBox="0 0 1024 1024" version="1.1" xmlns="http://www.w3.org/2000/svg" p-id="4485" width="16" height="16" xmlns:xlink="http://www.w3.org/1999/xlink"><path d="M692.821333 116.906667a42.666667 42.666667 0 0 1 23.893334 49.237333l-2.56 7.253333-328.021334 726.784a42.666667 42.666667 0 0 1-80.213333-27.818666l2.474667-7.338667 328.021333-726.698667a42.666667 42.666667 0 0 1 56.405333-21.333333zM433.237333 213.333333c21.76 0 39.338667 19.114667 39.338667 42.666667a41.813333 41.813333 0 0 1-32.256 41.984l-7.082667 0.682667H269.141333C164.181333 298.666667 78.848 393.898667 78.848 512c0 113.322667 78.677333 205.653333 177.749333 212.906667l12.544 0.426666h51.882667l-38.912 85.333334h-12.970667C120.234667 810.666667 0 676.693333 0 512c0-159.232 112.384-289.706667 254.293333-298.24l14.848-0.426667h164.096z m308.48 0h13.141334l14.762666 0.426667C911.616 222.293333 1024 352.853333 1024 512c0 159.232-112.384 289.706667-254.293333 298.24l-14.848 0.426667H590.762667l-7.082667-0.682667A41.813333 41.813333 0 0 1 551.424 768a41.813333 41.813333 0 0 1 32.256-41.984l7.082667-0.682667h164.096l12.544-0.426666c98.986667-7.253333 177.834667-99.584 177.834666-212.906667 0-113.152-78.506667-205.397333-177.322666-212.821333L754.858667 298.666667h-52.053334l38.912-85.333334z m-304.128 256l-38.912 85.333334H341.333333a42.666667 42.666667 0 0 1 0-85.333334h96.256z m187.562667 0H682.666667a42.666667 42.666667 0 0 1 0 85.333334H586.325333l38.826667-85.333334z" fill="#ffffff" p-id="4486"></path></svg>