<svg xmlns="http://www.w3.org/2000/svg" width="16" height="16" viewBox="0 0 16 16">
  <metadata><?xpacket begin="﻿" id="W5M0MpCehiHzreSzNTczkc9d"?>
<x:xmpmeta xmlns:x="adobe:ns:meta/" x:xmptk="Adobe XMP Core 5.6-c138 79.159824, 2016/09/14-01:09:01        ">
   <rdf:RDF xmlns:rdf="http://www.w3.org/1999/02/22-rdf-syntax-ns#">
      <rdf:Description rdf:about=""/>
   </rdf:RDF>
</x:xmpmeta>
                                                                                                    
                                                                                                    
                                                                                                    
                                                                                                    
                                                                                                    
                                                                                                    
                                                                                                    
                                                                                                    
                                                                                                    
                                                                                                    
                                                                                                    
                                                                                                    
                                                                                                    
                                                                                                    
                                                                                                    
                                                                                                    
                                                                                                    
                                                                                                    
                                                                                                    
                                                                                                    
                           
<?xpacket end="w"?></metadata>
<defs>
    <style>
      .cls-1 {
        fill: #fff;
        fill-rule: evenodd;
      }
    </style>
  </defs>
  <path id="硬件信息" class="cls-1" d="M579,354v1h-2v1h-1v2h-1v-2h-2v2h-1v-2h-2v2h-1v-2h-2v2h-1v-2h-1v-1h-2v-1h2v-2h-2v-1h2v-2h-2v-1h2v-2h-2v-1h2v-1h1v-2h1v2h2v-2h1v2h2v-2h1v2h2v-2h1v2h1v1h2v1h-2v2h2v1h-2v2h2v1h-2v2h2Zm-3,0v-9H566v10h10v-1Zm-8-7h6v6h-6v-6Z" transform="translate(-563 -342)"/>
</svg>
