<svg xmlns="http://www.w3.org/2000/svg" width="16" height="16" viewBox="0 0 16 16">
  <defs>
    <style>
      .cls-1 {
        fill: #fff;
        fill-rule: evenodd;
      }
    </style>
  </defs>
  <path id="输出icon" class="cls-1" d="M538.1,275.2v3.5h2.7l3.1,2.4v-8.3l-3,2.4h-2.8Zm2.4-1.1,3.6-2.9a0.664,0.664,0,0,1,.6-0.1,0.55,0.55,0,0,1,.3.5v10.6a0.55,0.55,0,0,1-.3.5,0.473,0.473,0,0,1-.6-0.1l-3.7-2.9h-2.8a0.576,0.576,0,0,1-.6-0.6v-4.6a0.645,0.645,0,0,1,.6-0.6h2.9v0.2Zm7.3,6.3a0.565,0.565,0,0,1-.8-0.8,3.477,3.477,0,0,0,1.1-2.7,3.95,3.95,0,0,0-1-2.5,0.475,0.475,0,0,1-.1-0.5,0.783,0.783,0,0,1,.4-0.4,0.475,0.475,0,0,1,.5.2,5.065,5.065,0,0,1,1.3,3.3,4.071,4.071,0,0,1-1.4,3.4h0Zm2.8,2.4a0.737,0.737,0,0,1-.6.2,0.43,0.43,0,0,1-.4-0.4,0.44,0.44,0,0,1,.1-0.5,7.1,7.1,0,0,0,2.1-5.1,7.024,7.024,0,0,0-2-5,0.566,0.566,0,1,1,.8-0.8A8.437,8.437,0,0,1,553,277a8.256,8.256,0,0,1-2.4,5.8h0Z" transform="translate(-537 -269.031)"/>
</svg>
