<svg xmlns="http://www.w3.org/2000/svg" width="16" height="16" viewBox="0 0 16 16">
  <metadata><?xpacket begin="﻿" id="W5M0MpCehiHzreSzNTczkc9d"?>
<x:xmpmeta xmlns:x="adobe:ns:meta/" x:xmptk="Adobe XMP Core 5.6-c138 79.159824, 2016/09/14-01:09:01        ">
   <rdf:RDF xmlns:rdf="http://www.w3.org/1999/02/22-rdf-syntax-ns#">
      <rdf:Description rdf:about=""/>
   </rdf:RDF>
</x:xmpmeta>
                                                                                                    
                                                                                                    
                                                                                                    
                                                                                                    
                                                                                                    
                                                                                                    
                                                                                                    
                                                                                                    
                                                                                                    
                                                                                                    
                                                                                                    
                                                                                                    
                                                                                                    
                                                                                                    
                                                                                                    
                                                                                                    
                                                                                                    
                                                                                                    
                                                                                                    
                                                                                                    
                           
<?xpacket end="w"?></metadata>
<defs>
    <style>
      .cls-1 {
        fill: #fff;
        fill-rule: evenodd;
      }
    </style>
  </defs>
  <path id="VPN_icon" data-name="VPN icon" class="cls-1" d="M41.833,225H38.166A0.173,0.173,0,0,1,38,224.822v-3.911a0.173,0.173,0,0,1,.167-0.178h1.125v-1.6H34.707v1.6h1.126a0.173,0.173,0,0,1,.166.178v3.911a0.173,0.173,0,0,1-.166.178H32.166A0.173,0.173,0,0,1,32,224.822v-3.911a0.173,0.173,0,0,1,.166-0.178h1.125v-1.6H28.708v1.6h1.125a0.173,0.173,0,0,1,.167.178v3.911a0.173,0.173,0,0,1-.167.178H26.166A0.173,0.173,0,0,1,26,224.822v-3.911a0.173,0.173,0,0,1,.167-0.178h1.125v-3.111h6v-2.044H28.333A0.346,0.346,0,0,1,28,215.222v-5.867A0.346,0.346,0,0,1,28.333,209H39.666a0.346,0.346,0,0,1,.333.355v5.867a0.346,0.346,0,0,1-.333.356H34.707v2.044h6v3.111h1.125a0.173,0.173,0,0,1,.167.178v3.911A0.173,0.173,0,0,1,41.833,225Zm-13.166-2.787a0.058,0.058,0,0,0-.056-0.06H27.387a0.058,0.058,0,0,0-.056.06v1.305a0.058,0.058,0,0,0,.056.06H28.61a0.058,0.058,0,0,0,.056-0.06v-1.305Zm4.665,1.305a0.058,0.058,0,0,0,.056.06H34.61a0.058,0.058,0,0,0,.056-0.06v-1.305a0.058,0.058,0,0,0-.056-0.06H33.387a0.058,0.058,0,0,0-.056.06v1.305Zm5.335-9.363v-3.733H29.333v3.733h9.333Zm2,8.058a0.058,0.058,0,0,0-.056-0.06H39.387a0.059,0.059,0,0,0-.056.06v1.305a0.059,0.059,0,0,0,.056.06H40.61a0.058,0.058,0,0,0,.056-0.06v-1.305Zm-9-10.813a0.891,0.891,0,1,1-.833.889A0.862,0.862,0,0,1,31.666,211.4Z" transform="translate(-26 -209)"/>
</svg>
