<?xml version="1.0" encoding="UTF-8" ?>
<!DOCTYPE svg PUBLIC "-//W3C//DTD SVG 1.1//EN" "http://www.w3.org/Graphics/SVG/1.1/DTD/svg11.dtd">
<svg width="16pt" height="16pt" viewBox="0 0 16 16" version="1.1" xmlns="http://www.w3.org/2000/svg">
<g id="#f7f7f7f7">
<path fill="#f7f7f7" opacity="0.97" d=" M 0.00 1.00 C 5.33 1.00 10.67 1.00 16.00 1.00 L 16.00 2.34 C 10.67 2.35 5.33 2.35 0.00 2.34 L 0.00 1.00 Z" />
<path fill="#f7f7f7" opacity="0.97" d=" M 0.00 5.40 C 3.23 4.36 6.67 4.87 10.00 4.81 C 10.00 6.63 10.00 8.44 10.00 10.26 C 6.67 10.28 3.33 10.28 0.00 10.24 L 0.00 5.40 M 1.61 6.06 C 1.61 6.78 1.61 8.22 1.61 8.93 C 3.97 8.93 6.32 8.93 8.68 8.93 C 8.70 8.22 8.72 6.80 8.73 6.09 C 6.36 6.09 3.98 6.06 1.61 6.06 Z" />
<path fill="#f7f7f7" opacity="0.97" d=" M 11.36 5.75 C 11.89 4.02 14.73 5.03 16.00 5.49 L 16.00 5.92 C 14.50 6.18 12.73 6.65 11.36 5.75 Z" />
<path fill="#f7f7f7" opacity="0.97" d=" M 11.31 9.23 C 12.71 8.37 14.49 8.80 16.00 9.10 L 16.00 9.54 C 14.67 9.97 11.97 10.94 11.31 9.23 Z" />
<path fill="#f7f7f7" opacity="0.97" d=" M 0.00 12.66 C 5.33 12.65 10.67 12.65 16.00 12.66 L 16.00 14.00 C 10.67 14.00 5.33 14.00 0.00 14.00 L 0.00 12.66 Z" />
</g>
</svg>
