<svg xmlns="http://www.w3.org/2000/svg" width="16" height="16" viewBox="0 0 16 16">
  <metadata><?xpacket begin="﻿" id="W5M0MpCehiHzreSzNTczkc9d"?>
<x:xmpmeta xmlns:x="adobe:ns:meta/" x:xmptk="Adobe XMP Core 5.6-c138 79.159824, 2016/09/14-01:09:01        ">
   <rdf:RDF xmlns:rdf="http://www.w3.org/1999/02/22-rdf-syntax-ns#">
      <rdf:Description rdf:about=""/>
   </rdf:RDF>
</x:xmpmeta>
                                                                                                    
                                                                                                    
                                                                                                    
                                                                                                    
                                                                                                    
                                                                                                    
                                                                                                    
                                                                                                    
                                                                                                    
                                                                                                    
                                                                                                    
                                                                                                    
                                                                                                    
                                                                                                    
                                                                                                    
                                                                                                    
                                                                                                    
                                                                                                    
                                                                                                    
                                                                                                    
                           
<?xpacket end="w"?></metadata>
<defs>
    <style>
      .cls-1 {
        fill: #fff;
        fill-rule: evenodd;
      }
    </style>
  </defs>
  <path id="权限icon" class="cls-1" d="M1483.7,1612h-6.55a0.293,0.293,0,0,1-.3-0.29v-2.79a0.3,0.3,0,0,1,.3-0.3h2.68v-0.67a2.085,2.085,0,1,1,1.19,0v0.67h2.68a0.3,0.3,0,0,1,.3.3v2.79A0.293,0.293,0,0,1,1483.7,1612Zm-2.34-6.02a0.935,0.935,0,1,0-.93.92A0.933,0.933,0,0,0,1481.36,1605.98Zm1.49,3.78H1478v1.1h4.85v-1.1Zm0.11-6.42h-1.05a0.145,0.145,0,0,1-.14-0.15v-5.87h-10.43v12.92h4.17a0.147,0.147,0,0,1,.15.15v1.02a0.154,0.154,0,0,1-.15.15h-4.91a0.593,0.593,0,0,1-.6-0.59v-14.38a0.593,0.593,0,0,1,.6-0.59h11.91a0.593,0.593,0,0,1,.6.59v6.6A0.154,0.154,0,0,1,1482.96,1603.34Zm-10.13-3.12v-0.88a0.154,0.154,0,0,1,.15-0.15h7.15a0.154,0.154,0,0,1,.15.15v0.88a0.154,0.154,0,0,1-.15.15h-7.15A0.154,0.154,0,0,1,1472.83,1600.22Zm0,2.64v-0.88a0.154,0.154,0,0,1,.15-0.15h3.42a0.147,0.147,0,0,1,.15.15v0.88a0.147,0.147,0,0,1-.15.15h-3.42A0.154,0.154,0,0,1,1472.83,1602.86Z" transform="translate(-1469 -1596)"/>
</svg>
