<svg id="时钟" xmlns="http://www.w3.org/2000/svg" xmlns:xlink="http://www.w3.org/1999/xlink" width="180" height="180" viewBox="0 0 180 180">
  <metadata><?xpacket begin="﻿" id="W5M0MpCehiHzreSzNTczkc9d"?>
<x:xmpmeta xmlns:x="adobe:ns:meta/" x:xmptk="Adobe XMP Core 5.6-c138 79.159824, 2016/09/14-01:09:01        ">
   <rdf:RDF xmlns:rdf="http://www.w3.org/1999/02/22-rdf-syntax-ns#">
      <rdf:Description rdf:about=""/>
   </rdf:RDF>
</x:xmpmeta>
                                                                                                    
                                                                                                    
                                                                                                    
                                                                                                    
                                                                                                    
                                                                                                    
                                                                                                    
                                                                                                    
                                                                                                    
                                                                                                    
                                                                                                    
                                                                                                    
                                                                                                    
                                                                                                    
                                                                                                    
                                                                                                    
                                                                                                    
                                                                                                    
                                                                                                    
                                                                                                    
                           
<?xpacket end="w"?></metadata>
<defs>
    <style>
      .cls-1 {
        fill: url(#linear-gradient);
      }

      .cls-2 {
        fill: url(#linear-gradient-2);
      }

      .cls-3 {
        font-size: 19.444px;
        fill: #2f292d;
        font-family: "PingFang SC";
      }

      .cls-4 {
        fill: #2e2e2e;
      }

      .cls-4, .cls-5 {
        fill-rule: evenodd;
      }

      .cls-5 {
        fill: #a3a3a3;
      }
    </style>
    <linearGradient id="linear-gradient" x1="90" y1="180" x2="90" gradientUnits="userSpaceOnUse">
      <stop offset="0" stop-color="#bebebe"/>
      <stop offset="1" stop-color="#fff"/>
    </linearGradient>
    <linearGradient id="linear-gradient-2" x1="90" y1="175" x2="90" y2="5" gradientUnits="userSpaceOnUse">
      <stop offset="0" stop-color="#e6e6e6"/>
      <stop offset="1" stop-color="#d9d9d9"/>
    </linearGradient>
  </defs>
  <circle id="形状_1_副本_3" data-name="形状 1 副本 3" class="cls-1" cx="90" cy="90" r="90"/>
  <circle id="形状_1_副本_2" data-name="形状 1 副本 2" class="cls-2" cx="90" cy="90" r="85"/>
  <g id="组_2" data-name="组 2">
    <text id="_12" data-name="12" class="cls-3" transform="translate(79.08 37.601) scale(0.72)">12</text>
    <text id="_6" data-name="6" class="cls-3" transform="translate(84.96 154.241) scale(0.72)">6</text>
    <text id="_3" data-name="3" class="cls-3" transform="translate(146.16 95.641) scale(0.72)">3</text>
    <text id="_9" data-name="9" class="cls-3" transform="translate(24.04 95.641) scale(0.72)">9</text>
  </g>
  <g id="组_1_拷贝" data-name="组 1 拷贝">
    <path id="矩形_1392_拷贝_2" data-name="矩形 1392 拷贝 2" class="cls-4" d="M680,290h1v8h-1v-8Zm0,144h1v8h-1v-8Zm69-68h8v1h-8v-1Zm-144,0h8v1h-8v-1Z" transform="translate(-591 -276)"/>
    <path id="矩形_1392_拷贝_3" data-name="矩形 1392 拷贝 3" class="cls-5" d="M718.134,299.682l0.866,0.5-2.5,4.33-0.866-.5Zm-73.5,127.306,0.866,0.5-2.5,4.33-0.866-.5ZM742.488,401.5l4.33,2.5-0.5.866-4.33-2.5ZM615.182,328l4.33,2.5-0.5.866-4.33-2.5Z" transform="translate(-591 -276)"/>
    <path id="矩形_1392_拷贝_4" data-name="矩形 1392 拷贝 4" class="cls-5" d="M746.159,327.225l0.5,0.866-4.33,2.5-0.5-.866Zm-127.3,73.5,0.5,0.866-4.33,2.5-0.5-.866Zm97.488,26.854,2.5,4.33-0.867.5-2.5-4.33Zm-73.5-127.306,2.5,4.33-0.867.5-2.5-4.33Z" transform="translate(-591 -276)"/>
  </g>
</svg>
