<svg id="Flip_vertically_btn_d" data-name="Flip vertically_btn_d" xmlns="http://www.w3.org/2000/svg" width="40" height="24" viewBox="0 0 40 24">
  <metadata><?xpacket begin="﻿" id="W5M0MpCehiHzreSzNTczkc9d"?>
<x:xmpmeta xmlns:x="adobe:ns:meta/" x:xmptk="Adobe XMP Core 5.6-c138 79.159824, 2016/09/14-01:09:01        ">
   <rdf:RDF xmlns:rdf="http://www.w3.org/1999/02/22-rdf-syntax-ns#">
      <rdf:Description rdf:about=""/>
   </rdf:RDF>
</x:xmpmeta>
                                                                                                    
                                                                                                    
                                                                                                    
                                                                                                    
                                                                                                    
                                                                                                    
                                                                                                    
                                                                                                    
                                                                                                    
                                                                                                    
                                                                                                    
                                                                                                    
                                                                                                    
                                                                                                    
                                                                                                    
                                                                                                    
                                                                                                    
                                                                                                    
                                                                                                    
                                                                                                    
                           
<?xpacket end="w"?></metadata>
<defs>
    <style>
      .cls-1 {
        fill: #2a2a2a;
      }

      .cls-2 {
        fill: #4c4c4c;
        fill-rule: evenodd;
      }
    </style>
  </defs>
  <rect id="矩形_1395_拷贝_2" data-name="矩形 1395 拷贝 2" class="cls-1" width="40" height="24" rx="4" ry="4"/>
  <path id="形状_2" data-name="形状 2" class="cls-2" d="M987.409,413.389V400.153A0.157,0.157,0,0,0,987.25,400h-1.194a0.156,0.156,0,0,0-.158.153v11.511l-3.64-2.745a0.161,0.161,0,0,0-.258.12v1.379a0.3,0.3,0,0,0,.121.24l4.258,3.21a0.639,0.639,0,0,0,1.03-.479h0Zm4.693,0.458V402.336l3.639,2.745a0.161,0.161,0,0,0,.259-0.12v-1.379a0.3,0.3,0,0,0-.121-0.24l-4.258-3.21a0.639,0.639,0,0,0-1.03.477v13.238a0.155,0.155,0,0,0,.159.152h1.193a0.155,0.155,0,0,0,.159-0.152h0Zm0,0" transform="translate(-969 -395)"/>
</svg>
