<svg id="identification_btn_s" xmlns="http://www.w3.org/2000/svg" width="40" height="24" viewBox="0 0 40 24">
  <metadata><?xpacket begin="﻿" id="W5M0MpCehiHzreSzNTczkc9d"?>
<x:xmpmeta xmlns:x="adobe:ns:meta/" x:xmptk="Adobe XMP Core 5.6-c138 79.159824, 2016/09/14-01:09:01        ">
   <rdf:RDF xmlns:rdf="http://www.w3.org/1999/02/22-rdf-syntax-ns#">
      <rdf:Description rdf:about=""/>
   </rdf:RDF>
</x:xmpmeta>
                                                                                                    
                                                                                                    
                                                                                                    
                                                                                                    
                                                                                                    
                                                                                                    
                                                                                                    
                                                                                                    
                                                                                                    
                                                                                                    
                                                                                                    
                                                                                                    
                                                                                                    
                                                                                                    
                                                                                                    
                                                                                                    
                                                                                                    
                                                                                                    
                                                                                                    
                                                                                                    
                           
<?xpacket end="w"?></metadata>
<defs>
    <style>
      .cls-1 {
        fill: #4d4d4d;
      }

      .cls-2 {
        fill: #fff;
        fill-rule: evenodd;
      }
    </style>
  </defs>
  <rect id="矩形_1395_拷贝_2" data-name="矩形 1395 拷贝 2" class="cls-1" width="40" height="24" rx="4" ry="4"/>
  <path id="形状_3" data-name="形状 3" class="cls-2" d="M1059.91,407.394c-1.53,3.065-3.82,4.606-6.91,4.606s-5.39-1.541-6.91-4.6a0.912,0.912,0,0,1,0-.79q2.28-4.6,6.91-4.606t6.91,4.6A0.912,0.912,0,0,1,1059.91,407.394ZM1053,403.1c-2.59,0-4.49,1.255-5.82,3.9,1.33,2.641,3.23,3.9,5.82,3.9s4.49-1.255,5.82-3.9C1057.49,404.359,1055.59,403.1,1053,403.1Zm-0.06,6.6a2.7,2.7,0,1,1,2.82-2.7A2.763,2.763,0,0,1,1052.94,409.7Zm0-4.418a1.719,1.719,0,1,0,1.79,1.718A1.757,1.757,0,0,0,1052.94,405.282Z" transform="translate(-1033 -395)"/>
</svg>
