<svg id="rotation_90__btn_pre" data-name="rotation+90°_btn_pre" xmlns="http://www.w3.org/2000/svg" width="40" height="24" viewBox="0 0 40 24">
  <metadata><?xpacket begin="﻿" id="W5M0MpCehiHzreSzNTczkc9d"?>
<x:xmpmeta xmlns:x="adobe:ns:meta/" x:xmptk="Adobe XMP Core 5.6-c138 79.159824, 2016/09/14-01:09:01        ">
   <rdf:RDF xmlns:rdf="http://www.w3.org/1999/02/22-rdf-syntax-ns#">
      <rdf:Description rdf:about=""/>
   </rdf:RDF>
</x:xmpmeta>
                                                                                                    
                                                                                                    
                                                                                                    
                                                                                                    
                                                                                                    
                                                                                                    
                                                                                                    
                                                                                                    
                                                                                                    
                                                                                                    
                                                                                                    
                                                                                                    
                                                                                                    
                                                                                                    
                                                                                                    
                                                                                                    
                                                                                                    
                                                                                                    
                                                                                                    
                                                                                                    
                           
<?xpacket end="w"?></metadata>
<defs>
    <style>
      .cls-1 {
        fill: #212121;
      }

      .cls-2 {
        fill: #fff;
        fill-rule: evenodd;
      }
    </style>
  </defs>
  <rect id="矩形_1395_拷贝" data-name="矩形 1395 拷贝" class="cls-1" width="40" height="24" rx="4" ry="4"/>
  <path id="形状_1" data-name="形状 1" class="cls-2" d="M971.778,401.955l-0.963.735a7.217,7.217,0,0,0-5.647-2.69,7,7,0,1,0,0,14,7.166,7.166,0,0,0,6.736-4.6,0.132,0.132,0,0,0-.083-0.171l-0.968-.325a0.137,0.137,0,0,0-.173.08c-0.031.083-.065,0.166-0.1,0.248a5.678,5.678,0,0,1-1.258,1.823,5.883,5.883,0,0,1-1.865,1.23,6.024,6.024,0,0,1-4.569,0,5.832,5.832,0,0,1-1.866-1.23,5.693,5.693,0,0,1-1.258-1.823,5.631,5.631,0,0,1,0-4.463,5.7,5.7,0,0,1,1.258-1.824,5.986,5.986,0,0,1,6.435-1.23,5.85,5.85,0,0,1,1.865,1.23,5.743,5.743,0,0,1,.475.524l-1.028.783a0.132,0.132,0,0,0,.052.235l3,0.717a0.137,0.137,0,0,0,.169-0.129L972,402.058a0.138,0.138,0,0,0-.222-0.1h0Zm0,0" transform="translate(-945 -395)"/>
</svg>
