<svg xmlns="http://www.w3.org/2000/svg" width="16" height="16" viewBox="0 0 16 16">
  <metadata><?xpacket begin="﻿" id="W5M0MpCehiHzreSzNTczkc9d"?>
<x:xmpmeta xmlns:x="adobe:ns:meta/" x:xmptk="Adobe XMP Core 5.6-c138 79.159824, 2016/09/14-01:09:01        ">
   <rdf:RDF xmlns:rdf="http://www.w3.org/1999/02/22-rdf-syntax-ns#">
      <rdf:Description rdf:about=""/>
   </rdf:RDF>
</x:xmpmeta>
                                                                                                    
                                                                                                    
                                                                                                    
                                                                                                    
                                                                                                    
                                                                                                    
                                                                                                    
                                                                                                    
                                                                                                    
                                                                                                    
                                                                                                    
                                                                                                    
                                                                                                    
                                                                                                    
                                                                                                    
                                                                                                    
                                                                                                    
                                                                                                    
                                                                                                    
                                                                                                    
                           
<?xpacket end="w"?></metadata>
<defs>
    <style type="text/css">
      .cls-1 {
        fill:#fff;
		 fill-opacity:0.2;
        fill-rule: evenodd;
      }
    </style>
  </defs>
  <path id="time" class="cls-1" d="M557,714a8,8,0,1,1,8-8A8,8,0,0,1,557,714Zm0-14.643A6.643,6.643,0,1,0,563.643,706,6.644,6.644,0,0,0,557,699.357Zm2.641,9.8a0.143,0.143,0,0,1-.2.03l-2.954-2.153a0.143,0.143,0,0,1-.058-0.116V702a0.142,0.142,0,0,1,.142-0.143h0.859a0.143,0.143,0,0,1,.143.143v4.42l2.546,1.841a0.142,0.142,0,0,1,.033.2Z" transform="translate(-549 -698)"/>
</svg>
