<svg xmlns="http://www.w3.org/2000/svg" width="16" height="16" viewBox="0 0 16 16">
  <metadata><?xpacket begin="﻿" id="W5M0MpCehiHzreSzNTczkc9d"?>
<x:xmpmeta xmlns:x="adobe:ns:meta/" x:xmptk="Adobe XMP Core 5.6-c138 79.159824, 2016/09/14-01:09:01        ">
   <rdf:RDF xmlns:rdf="http://www.w3.org/1999/02/22-rdf-syntax-ns#">
      <rdf:Description rdf:about=""/>
   </rdf:RDF>
</x:xmpmeta>
                                                                                                    
                                                                                                    
                                                                                                    
                                                                                                    
                                                                                                    
                                                                                                    
                                                                                                    
                                                                                                    
                                                                                                    
                                                                                                    
                                                                                                    
                                                                                                    
                                                                                                    
                                                                                                    
                                                                                                    
                                                                                                    
                                                                                                    
                                                                                                    
                                                                                                    
                                                                                                    
                           
<?xpacket end="w"?></metadata>
<defs>
    <style>
      .cls-1 {
        fill: #fff;
        fill-rule: evenodd;
      }
    </style>
  </defs>
  <path id="修改icon" class="cls-1" d="M662.914,499.8a0.809,0.809,0,0,0,.12-0.01l3.364-.59a0.2,0.2,0,0,0,.106-0.056l8.478-8.478a0.2,0.2,0,0,0,0-.282l-3.324-3.326a0.2,0.2,0,0,0-.284,0l-8.478,8.478a0.2,0.2,0,0,0-.056.106l-0.59,3.364a0.67,0.67,0,0,0,.188.6,0.678,0.678,0,0,0,.476.2h0Zm1.348-3.488,7.254-7.252,1.466,1.466-7.254,7.252-1.778.314Zm11.1,5.168H660.64a0.639,0.639,0,0,0-.64.64v0.72a0.16,0.16,0,0,0,.16.16h15.68a0.16,0.16,0,0,0,.16-0.16v-0.72a0.639,0.639,0,0,0-.64-0.64h0Zm0,0" transform="translate(-660 -487)"/>
</svg>
