<?xml version="1.0" encoding="UTF-8" ?>
<!DOCTYPE svg PUBLIC "-//W3C//DTD SVG 1.1//EN" "http://www.w3.org/Graphics/SVG/1.1/DTD/svg11.dtd">
<svg width="160pt" height="160pt" viewBox="0 0 160 160" version="1.1" xmlns="http://www.w3.org/2000/svg">
<g id="#51515151">
<path fill="#515151" opacity="0.32" d=" M 74.38 0.00 L 85.27 0.00 C 103.94 1.47 122.13 9.26 135.56 22.41 C 149.80 35.93 158.35 54.86 160.00 74.36 L 160.00 85.35 C 158.50 104.01 150.71 122.17 137.58 135.58 C 124.03 149.81 105.11 158.37 85.60 160.00 L 74.69 160.00 C 56.26 158.53 38.31 150.93 24.94 138.07 C 10.43 124.53 1.69 105.42 0.00 85.71 L 0.00 74.53 C 1.62 54.50 10.61 35.07 25.47 21.44 C 38.69 8.92 56.32 1.57 74.38 0.00 M 70.46 2.63 C 50.76 4.97 32.19 15.28 19.70 30.67 C 10.25 42.12 4.22 56.34 2.56 71.09 C 0.34 89.61 5.16 108.84 15.79 124.16 C 31.59 147.55 60.79 160.99 88.83 157.46 C 104.33 155.72 119.21 149.16 130.97 138.94 C 144.54 127.24 153.92 110.75 156.85 93.07 C 159.80 76.17 156.87 58.32 148.72 43.23 C 141.85 30.41 131.32 19.57 118.69 12.35 C 104.23 4.01 87.02 0.51 70.46 2.63 Z" />
</g>
<g id="#0d0d0d0d">
<path fill="#0d0d0d" opacity="0.05" d=" M 70.46 2.63 C 87.02 0.51 104.23 4.01 118.69 12.35 C 131.32 19.57 141.85 30.41 148.72 43.23 C 156.87 58.32 159.80 76.17 156.85 93.07 C 153.92 110.75 144.54 127.24 130.97 138.94 C 119.21 149.16 104.33 155.72 88.83 157.46 C 60.79 160.99 31.59 147.55 15.79 124.16 C 5.16 108.84 0.34 89.61 2.56 71.09 C 4.22 56.34 10.25 42.12 19.70 30.67 C 32.19 15.28 50.76 4.97 70.46 2.63 M 78.00 40.00 C 78.00 52.67 78.00 65.33 78.00 78.00 C 65.33 78.00 52.67 78.00 40.00 78.00 C 40.00 79.33 40.00 80.67 40.00 82.00 C 52.67 82.00 65.33 82.00 78.00 82.00 C 78.00 94.67 78.00 107.33 78.00 120.00 C 79.33 120.00 80.67 120.00 82.00 120.00 C 82.00 107.33 82.00 94.67 82.00 82.00 C 94.67 82.00 107.33 82.00 120.00 82.00 C 120.00 80.67 120.00 79.33 120.00 78.00 C 107.33 78.00 94.67 78.00 82.00 78.00 C 82.00 65.33 82.00 52.67 82.00 40.00 C 80.67 40.00 79.33 40.00 78.00 40.00 Z" />
</g>
<g id="#ffffffff">
<path fill="#ffffff" opacity="1.00" d=" M 78.00 40.00 C 79.33 40.00 80.67 40.00 82.00 40.00 C 82.00 52.67 82.00 65.33 82.00 78.00 C 94.67 78.00 107.33 78.00 120.00 78.00 C 120.00 79.33 120.00 80.67 120.00 82.00 C 107.33 82.00 94.67 82.00 82.00 82.00 C 82.00 94.67 82.00 107.33 82.00 120.00 C 80.67 120.00 79.33 120.00 78.00 120.00 C 78.00 107.33 78.00 94.67 78.00 82.00 C 65.33 82.00 52.67 82.00 40.00 82.00 C 40.00 80.67 40.00 79.33 40.00 78.00 C 52.67 78.00 65.33 78.00 78.00 78.00 C 78.00 65.33 78.00 52.67 78.00 40.00 Z" />
</g>
</svg>
