<?xml version="1.0" encoding="UTF-8" ?>
<!DOCTYPE svg PUBLIC "-//W3C//DTD SVG 1.1//EN" "http://www.w3.org/Graphics/SVG/1.1/DTD/svg11.dtd">
<svg width="90pt" height="90pt" viewBox="0 0 90 90" version="1.1" xmlns="http://www.w3.org/2000/svg">
<g id="#58585858">
<path fill="#585858" opacity="0.35" d=" M 40.73 0.00 L 49.17 0.00 C 61.40 1.39 73.14 7.54 80.60 17.44 C 85.92 24.09 88.89 32.34 90.00 40.72 L 90.00 49.09 C 88.68 61.14 82.68 72.64 73.14 80.19 C 66.36 85.73 57.91 88.88 49.28 90.00 L 40.84 90.00 C 28.60 88.63 16.86 82.46 9.39 72.56 C 4.06 65.89 1.10 57.61 0.00 49.19 L 0.00 40.84 C 1.07 32.40 4.07 24.10 9.42 17.41 C 16.86 7.55 28.55 1.43 40.73 0.00 M 38.48 2.54 C 21.94 4.94 7.54 17.85 3.48 34.08 C -0.39 48.07 3.68 63.85 13.68 74.34 C 19.85 80.95 28.16 85.54 37.05 87.20 C 50.50 89.92 65.08 85.42 74.85 75.83 C 85.11 66.03 90.03 50.89 87.18 36.96 C 85.42 27.62 80.43 18.96 73.28 12.72 C 63.94 4.43 50.82 0.54 38.48 2.54 Z" />
</g>
<g id="#1a1a1a1a">
<path fill="#1a1a1a" opacity="0.10" d=" M 38.48 2.54 C 50.82 0.54 63.94 4.43 73.28 12.72 C 80.43 18.96 85.42 27.62 87.18 36.96 C 90.03 50.89 85.11 66.03 74.85 75.83 C 65.08 85.42 50.50 89.92 37.05 87.20 C 28.16 85.54 19.85 80.95 13.68 74.34 C 3.68 63.85 -0.39 48.07 3.48 34.08 C 7.54 17.85 21.94 4.94 38.48 2.54 M 35.54 28.55 C 30.53 31.61 30.35 39.18 34.63 42.98 C 30.10 45.39 27.08 50.09 26.87 55.23 C 27.66 55.24 29.26 55.25 30.06 55.26 C 30.35 50.53 33.61 46.46 38.15 45.12 C 38.19 43.92 38.23 42.72 38.28 41.53 C 34.97 39.80 33.45 35.11 36.18 32.21 C 38.69 29.17 43.50 29.95 45.65 33.01 C 46.73 32.75 47.80 32.49 48.87 32.23 C 46.48 27.47 39.99 25.32 35.54 28.55 M 43.80 36.80 C 39.42 40.10 39.52 47.19 43.66 50.67 C 39.14 53.13 36.05 57.76 35.87 62.95 C 36.67 62.97 38.26 62.99 39.06 63.00 C 39.34 57.40 44.18 52.33 49.97 52.75 C 55.42 52.87 59.63 57.73 59.95 63.01 C 60.74 62.99 62.34 62.96 63.13 62.95 C 62.94 57.76 59.85 53.12 55.33 50.67 C 58.60 47.80 59.59 42.61 57.06 38.94 C 54.41 34.48 47.72 33.34 43.80 36.80 Z" />
<path fill="#1a1a1a" opacity="0.10" d=" M 47.34 38.41 C 51.40 36.52 56.37 40.73 55.10 45.05 C 54.34 49.08 48.86 50.96 45.82 48.16 C 42.48 45.64 43.42 39.81 47.34 38.41 Z" />
</g>
<g id="#ffffffff">
<path fill="#ffffff" opacity="1.00" d=" M 35.54 28.55 C 39.99 25.32 46.48 27.47 48.87 32.23 C 47.80 32.49 46.73 32.75 45.65 33.01 C 43.50 29.95 38.69 29.17 36.18 32.21 C 33.45 35.11 34.97 39.80 38.28 41.53 C 38.23 42.72 38.19 43.92 38.15 45.12 C 33.61 46.46 30.35 50.53 30.06 55.26 C 29.26 55.25 27.66 55.24 26.87 55.23 C 27.08 50.09 30.10 45.39 34.63 42.98 C 30.35 39.18 30.53 31.61 35.54 28.55 Z" />
<path fill="#ffffff" opacity="1.00" d=" M 43.80 36.80 C 47.72 33.34 54.41 34.48 57.06 38.94 C 59.59 42.61 58.60 47.80 55.33 50.67 C 59.85 53.12 62.94 57.76 63.13 62.95 C 62.34 62.96 60.74 62.99 59.95 63.01 C 59.63 57.73 55.42 52.87 49.97 52.75 C 44.18 52.33 39.34 57.40 39.06 63.00 C 38.26 62.99 36.67 62.97 35.87 62.95 C 36.05 57.76 39.14 53.13 43.66 50.67 C 39.52 47.19 39.42 40.10 43.80 36.80 M 47.34 38.41 C 43.42 39.81 42.48 45.64 45.82 48.16 C 48.86 50.96 54.34 49.08 55.10 45.05 C 56.37 40.73 51.40 36.52 47.34 38.41 Z" />
</g>
</svg>
