<svg id="Flip_vertically_btn_check" data-name="Flip vertically_btn_check" xmlns="http://www.w3.org/2000/svg" width="40" height="24" viewBox="0 0 40 24">
  <metadata><?xpacket begin="﻿" id="W5M0MpCehiHzreSzNTczkc9d"?>
<x:xmpmeta xmlns:x="adobe:ns:meta/" x:xmptk="Adobe XMP Core 5.6-c138 79.159824, 2016/09/14-01:09:01        ">
   <rdf:RDF xmlns:rdf="http://www.w3.org/1999/02/22-rdf-syntax-ns#">
      <rdf:Description rdf:about=""/>
   </rdf:RDF>
</x:xmpmeta>
                                                                                                    
                                                                                                    
                                                                                                    
                                                                                                    
                                                                                                    
                                                                                                    
                                                                                                    
                                                                                                    
                                                                                                    
                                                                                                    
                                                                                                    
                                                                                                    
                                                                                                    
                                                                                                    
                                                                                                    
                                                                                                    
                                                                                                    
                                                                                                    
                                                                                                    
                                                                                                    
                           
<?xpacket end="w"?></metadata>
<defs>
    <style>
      .cls-2 {
        fill: #fff;
        fill-rule: evenodd;
      }
    </style>
  </defs>
  <path id="形状_2" data-name="形状 2" class="cls-2" d="M987.409,400.611v13.236a0.157,0.157,0,0,1-.159.153h-1.194a0.156,0.156,0,0,1-.158-0.153V402.336l-3.64,2.745a0.161,0.161,0,0,1-.258-0.12v-1.379a0.3,0.3,0,0,1,.121-0.24l4.258-3.21a0.639,0.639,0,0,1,1.03.479h0Zm4.693-.458v11.511l3.639-2.745a0.161,0.161,0,0,1,.259.12v1.379a0.3,0.3,0,0,1-.121.24l-4.258,3.21a0.639,0.639,0,0,1-1.03-.477V400.153A0.155,0.155,0,0,1,990.75,400h1.193a0.155,0.155,0,0,1,.159.152h0Zm0,0" transform="translate(-969 -395)"/>
</svg>
