<svg xmlns="http://www.w3.org/2000/svg" width="16" height="16" viewBox="0 0 16 16">
  <metadata><?xpacket begin="﻿" id="W5M0MpCehiHzreSzNTczkc9d"?>
<x:xmpmeta xmlns:x="adobe:ns:meta/" x:xmptk="Adobe XMP Core 5.6-c138 79.159824, 2016/09/14-01:09:01        ">
   <rdf:RDF xmlns:rdf="http://www.w3.org/1999/02/22-rdf-syntax-ns#">
      <rdf:Description rdf:about=""/>
   </rdf:RDF>
</x:xmpmeta>
                                                                                                    
                                                                                                    
                                                                                                    
                                                                                                    
                                                                                                    
                                                                                                    
                                                                                                    
                                                                                                    
                                                                                                    
                                                                                                    
                                                                                                    
                                                                                                    
                                                                                                    
                                                                                                    
                                                                                                    
                                                                                                    
                                                                                                    
                                                                                                    
                                                                                                    
                                                                                                    
                           
<?xpacket end="w"?></metadata>
<defs>
    <style>
      .cls-1 {
        fill: #fff;
        fill-rule: evenodd;
      }
    </style>
  </defs>
  <path id="修改icon" class="cls-1" d="M1761.91,1568.8a0.487,0.487,0,0,0,.12-0.01l3.37-.59a0.17,0.17,0,0,0,.1-0.06l8.48-8.47a0.205,0.205,0,0,0,0-.29l-3.32-3.32a0.2,0.2,0,0,0-.14-0.06,0.2,0.2,0,0,0-.15.06l-8.48,8.48a0.313,0.313,0,0,0-.05.1l-0.59,3.37a0.681,0.681,0,0,0,.66.79h0Zm1.35-3.49,7.26-7.25,1.46,1.47-7.25,7.25-1.78.31Zm11.1,5.17h-14.72a0.638,0.638,0,0,0-.64.64v0.72a0.158,0.158,0,0,0,.16.16h15.68a0.158,0.158,0,0,0,.16-0.16v-0.72a0.644,0.644,0,0,0-.64-0.64h0Zm0,0" transform="translate(-1759 -1556)"/>
</svg>
