<svg xmlns="http://www.w3.org/2000/svg" width="16" height="16" viewBox="0 0 16 16">
  <metadata><?xpacket begin="﻿" id="W5M0MpCehiHzreSzNTczkc9d"?>
<x:xmpmeta xmlns:x="adobe:ns:meta/" x:xmptk="Adobe XMP Core 5.6-c138 79.159824, 2016/09/14-01:09:01        ">
   <rdf:RDF xmlns:rdf="http://www.w3.org/1999/02/22-rdf-syntax-ns#">
      <rdf:Description rdf:about=""/>
   </rdf:RDF>
</x:xmpmeta>
                                                                                                    
                                                                                                    
                                                                                                    
                                                                                                    
                                                                                                    
                                                                                                    
                                                                                                    
                                                                                                    
                                                                                                    
                                                                                                    
                                                                                                    
                                                                                                    
                                                                                                    
                                                                                                    
                                                                                                    
                                                                                                    
                                                                                                    
                                                                                                    
                                                                                                    
                                                                                                    
                           
<?xpacket end="w"?></metadata>
<defs>
    <style>
      .cls-1 {
        fill: #fff;
        fill-rule: evenodd;
      }
    </style>
  </defs>
  <path id="版本授权icon" class="cls-1" d="M71.7,492H65.149a0.3,0.3,0,0,1-.3-0.294v-2.789a0.3,0.3,0,0,1,.3-0.293H67.83v-0.672a2.085,2.085,0,1,1,1.192,0v0.672H71.7a0.3,0.3,0,0,1,.3.293v2.789A0.3,0.3,0,0,1,71.7,492Zm-2.346-6.018a0.931,0.931,0,1,0-.931.917A0.925,0.925,0,0,0,69.356,485.982Zm1.489,3.779h-4.84v1.1h4.84v-1.1Zm0.112-6.422H69.915a0.148,0.148,0,0,1-.149-0.146v-5.872H59.341v12.918h4.17a0.148,0.148,0,0,1,.149.146v1.028a0.148,0.148,0,0,1-.149.147H58.6a0.591,0.591,0,0,1-.6-0.588V476.587A0.591,0.591,0,0,1,58.6,476H70.511a0.591,0.591,0,0,1,.6.587v6.606A0.148,0.148,0,0,1,70.957,483.339ZM60.83,480.22v-0.881a0.148,0.148,0,0,1,.149-0.146h7.149a0.148,0.148,0,0,1,.149.146v0.881a0.148,0.148,0,0,1-.149.147H60.979A0.148,0.148,0,0,1,60.83,480.22Zm0,2.642v-0.88a0.148,0.148,0,0,1,.149-0.147H64.4a0.148,0.148,0,0,1,.149.147v0.88a0.148,0.148,0,0,1-.149.147H60.979A0.148,0.148,0,0,1,60.83,482.862Z" transform="translate(-57 -476)"/>
</svg>
