<svg xmlns="http://www.w3.org/2000/svg" width="16" height="16" viewBox="0 0 16 16">
  <metadata><?xpacket begin="﻿" id="W5M0MpCehiHzreSzNTczkc9d"?>
<x:xmpmeta xmlns:x="adobe:ns:meta/" x:xmptk="Adobe XMP Core 5.6-c138 79.159824, 2016/09/14-01:09:01        ">
   <rdf:RDF xmlns:rdf="http://www.w3.org/1999/02/22-rdf-syntax-ns#">
      <rdf:Description rdf:about=""/>
   </rdf:RDF>
</x:xmpmeta>
                                                                                                    
                                                                                                    
                                                                                                    
                                                                                                    
                                                                                                    
                                                                                                    
                                                                                                    
                                                                                                    
                                                                                                    
                                                                                                    
                                                                                                    
                                                                                                    
                                                                                                    
                                                                                                    
                                                                                                    
                                                                                                    
                                                                                                    
                                                                                                    
                                                                                                    
                                                                                                    
                           
<?xpacket end="w"?></metadata>
<defs>
    <style type = "text/css">
      .cls-1 {
        fill: #fff;
        fill-rule: evenodd;
      }
    </style>
  </defs>
  <path id="二维码" class="cls-1" d="M7475.83,312h-1a0.162,0.162,0,0,1-.16-0.166v-1a0.163,0.163,0,0,1,.16-0.167h1a0.171,0.171,0,0,1,.17.167v1A0.171,0.171,0,0,1,7475.83,312Zm0-2.958h-3.96a0.163,0.163,0,0,1-.16-0.167V306.75h-1.63v5.084a0.162,0.162,0,0,1-.16.166h-1a0.165,0.165,0,0,1-.17-0.166v-6.917a0.165,0.165,0,0,1,.17-0.167h3.95a0.165,0.165,0,0,1,.17.167v2.792h1.63v-2.792a0.163,0.163,0,0,1,.16-0.167h1a0.171,0.171,0,0,1,.17.167v3.958A0.171,0.171,0,0,1,7475.83,309.042Zm0-5.792h-6.91a0.165,0.165,0,0,1-.17-0.166v-6.917a0.165,0.165,0,0,1,.17-0.167h6.41a0.668,0.668,0,0,1,.67.667v6.417A0.171,0.171,0,0,1,7475.83,303.25Zm-1.16-5.916h-4.59v4.583h4.59v-4.583Zm-2.88,1.541h1.17a0.163,0.163,0,0,1,.16.167v1.167a0.162,0.162,0,0,1-.16.166h-1.17a0.171,0.171,0,0,1-.17-0.166v-1.167A0.171,0.171,0,0,1,7471.79,298.875ZM7467.08,312h-6.41a0.668,0.668,0,0,1-.67-0.666v-6.417a0.165,0.165,0,0,1,.17-0.167h6.91a0.171,0.171,0,0,1,.17.167v6.917A0.171,0.171,0,0,1,7467.08,312Zm-1.16-5.916h-4.59v4.583h4.59v-4.583Zm-2.88,1.541h1.17a0.163,0.163,0,0,1,.16.167v1.167a0.162,0.162,0,0,1-.16.166h-1.17a0.171,0.171,0,0,1-.17-0.166v-1.167A0.171,0.171,0,0,1,7463.04,307.625Zm4.04-4.375h-6.91a0.165,0.165,0,0,1-.17-0.166v-6.417a0.668,0.668,0,0,1,.67-0.667h6.41a0.171,0.171,0,0,1,.17.167v6.917A0.171,0.171,0,0,1,7467.08,303.25Zm-1.16-5.916h-4.59v4.583h4.59v-4.583Zm-2.88,1.541h1.17a0.163,0.163,0,0,1,.16.167v1.167a0.162,0.162,0,0,1-.16.166h-1.17a0.171,0.171,0,0,1-.17-0.166v-1.167A0.171,0.171,0,0,1,7463.04,298.875Zm8.83,11.792h1a0.165,0.165,0,0,1,.17.167v1a0.165,0.165,0,0,1-.17.166h-1a0.162,0.162,0,0,1-.16-0.166v-1A0.163,0.163,0,0,1,7471.87,310.667Z" transform="translate(-7460 -296)"/>
</svg>
